<svg width="460" height="300" viewBox="0 0 460 300" fill="none" xmlns="http://www.w3.org/2000/svg">
<g clip-path="url(#clip0_51_381)">
<path d="M23.1901 206.896C19.5981 205.204 19.3162 200.202 22.6954 198.117L108.456 145.209C117.085 139.886 127.818 139.281 136.99 143.601L265.65 204.2C269.242 205.891 269.524 210.894 266.145 212.978L180.385 265.887C171.756 271.21 161.022 271.815 151.85 267.495L23.1901 206.896Z" fill="url(#paint0_linear_51_381)"/>
<path d="M23.1901 189.492C19.5981 187.8 19.3162 182.798 22.6954 180.714L108.456 127.805C117.085 122.482 127.818 121.877 136.99 126.197L265.65 186.796C269.242 188.488 269.524 193.49 266.145 195.575L180.385 248.483C171.756 253.806 161.022 254.411 151.85 250.091L23.1901 189.492Z" fill="white"/>
<path d="M54.578 184.523C54.578 184.523 61.7325 181.857 59.0966 176.524C56.3345 170.936 70.5341 182.518 72.2761 176.524C73.2733 173.093 71.0352 171.112 72.2761 167.763C74.1859 162.609 82.02 171.276 86.2087 167.763C88.4441 165.888 85.8322 164.315 89.9743 161.278C94.1164 158.24 128.007 136.147 128.007 136.147" stroke="#EBEBEB" stroke-width="4" stroke-linecap="round"/>
<path d="M74.447 193.162C74.447 193.162 81.6385 190.543 78.989 185.306C76.2126 179.817 84.3224 188.558 89.5869 185.306C92.6149 183.435 91.3989 180.82 94.1289 178.572C96.3999 176.701 102.03 180.151 106.241 176.701C108.488 174.86 105.862 173.314 110.026 170.331C114.189 167.348 147.876 145.649 147.876 145.649" stroke="#EBEBEB" stroke-width="4" stroke-linecap="round"/>
<path d="M94.316 201.801C94.316 201.801 99.866 200.035 97.1847 194.777C94.3751 189.267 102.582 198.042 107.91 194.777C113.979 191.057 110.583 191.899 117.103 187.265C121.316 184.27 133.19 176.749 133.19 176.749" stroke="#EBEBEB" stroke-width="4" stroke-linecap="round"/>
<circle cx="54.6399" cy="184.599" r="1.85114" fill="#215EF3"/>
<circle cx="74.0769" cy="192.929" r="1.85114" fill="#B8B8B8"/>
<circle cx="93.5138" cy="202.185" r="1.85114" fill="#B8B8B8"/>
<path opacity="0.1" fill-rule="evenodd" clip-rule="evenodd" d="M223 37.0009V192.521L119.009 141.95C119.003 141.488 119 141.025 119 140.562C119 83.3661 165.366 37 222.562 37C222.708 37 222.854 37.0003 223 37.0009Z" fill="url(#paint1_linear_51_381)"/>
<mask id="mask0_51_381" style="mask-type:alpha" maskUnits="userSpaceOnUse" x="115" y="32" width="108" height="161">
<path d="M115 32H223V192.521L115 140V32Z" fill="#C4C4C4"/>
</mask>
<g mask="url(#mask0_51_381)">
<circle cx="222.562" cy="140.562" r="103.062" stroke="#87AAF9" stroke-dasharray="6 6"/>
<circle cx="223" cy="140.48" r="66.0753" stroke="#87AAF9" stroke-dasharray="6 6"/>
<circle cx="223" cy="140.48" r="84.5685" stroke="#87AAF9" stroke-dasharray="6 6"/>
</g>
<rect x="223" y="20" width="150" height="201" rx="4" fill="url(#paint2_linear_51_381)"/>
<g filter="url(#filter0_d_51_381)">
<path d="M223 24C223 21.7909 224.791 20 227 20H369C371.209 20 373 21.7909 373 24V36H223V24Z" fill="white" shape-rendering="crispEdges"/>
<circle cx="231" cy="28" r="3" fill="#4ADCB1"/>
<circle cx="242" cy="28" r="3" fill="#858585"/>
</g>
<path d="M238 57C238 53.6863 240.686 51 244 51H352C355.314 51 358 53.6863 358 57C358 60.3137 355.314 63 352 63H244C240.686 63 238 60.3137 238 57Z" fill="#215EF3"/>
<path d="M238 84C238 80.6863 240.686 78 244 78H352C355.314 78 358 80.6863 358 84C358 87.3137 355.314 90 352 90H244C240.686 90 238 87.3137 238 84Z" fill="url(#paint3_linear_51_381)"/>
<path d="M238 104C238 100.686 240.686 98 244 98H352C355.314 98 358 100.686 358 104C358 107.314 355.314 110 352 110H244C240.686 110 238 107.314 238 104Z" fill="url(#paint4_linear_51_381)"/>
<path d="M238 124C238 120.686 240.686 118 244 118H352C355.314 118 358 120.686 358 124C358 127.314 355.314 130 352 130H244C240.686 130 238 127.314 238 124Z" fill="url(#paint5_linear_51_381)"/>
<path d="M238 144C238 140.686 240.686 138 244 138H352C355.314 138 358 140.686 358 144C358 147.314 355.314 150 352 150H244C240.686 150 238 147.314 238 144Z" fill="url(#paint6_linear_51_381)"/>
<path d="M323 191C323 179.954 331.954 171 343 171H373V181C373 203.091 355.091 221 333 221H323V191Z" fill="url(#paint7_linear_51_381)"/>
</g>
<defs>
<filter id="filter0_d_51_381" x="219" y="17" width="158" height="24" filterUnits="userSpaceOnUse" color-interpolation-filters="sRGB">
<feFlood flood-opacity="0" result="BackgroundImageFix"/>
<feColorMatrix in="SourceAlpha" type="matrix" values="0 0 0 0 0 0 0 0 0 0 0 0 0 0 0 0 0 0 127 0" result="hardAlpha"/>
<feOffset dy="1"/>
<feGaussianBlur stdDeviation="2"/>
<feComposite in2="hardAlpha" operator="out"/>
<feColorMatrix type="matrix" values="0 0 0 0 0.921569 0 0 0 0 0.921569 0 0 0 0 0.921569 0 0 0 0.5 0"/>
<feBlend mode="normal" in2="BackgroundImageFix" result="effect1_dropShadow_51_381"/>
<feBlend mode="normal" in="SourceGraphic" in2="effect1_dropShadow_51_381" result="shape"/>
</filter>
<linearGradient id="paint0_linear_51_381" x1="168.445" y1="258.829" x2="109.424" y2="105.982" gradientUnits="userSpaceOnUse">
<stop stop-color="#87AAF9"/>
<stop offset="1" stop-color="#C67CF4"/>
</linearGradient>
<linearGradient id="paint1_linear_51_381" x1="244" y1="181.554" x2="158.341" y2="65.6586" gradientUnits="userSpaceOnUse">
<stop stop-color="#87AAF9"/>
<stop offset="1" stop-color="#87AAF9" stop-opacity="0"/>
</linearGradient>
<linearGradient id="paint2_linear_51_381" x1="304.663" y1="20" x2="307.05" y2="221.008" gradientUnits="userSpaceOnUse">
<stop stop-color="white"/>
<stop offset="1" stop-color="white" stop-opacity="0"/>
</linearGradient>
<linearGradient id="paint3_linear_51_381" x1="237.828" y1="84" x2="357.828" y2="84" gradientUnits="userSpaceOnUse">
<stop stop-color="#87AAF9"/>
<stop offset="1" stop-color="#87AAF9" stop-opacity="0.3"/>
</linearGradient>
<linearGradient id="paint4_linear_51_381" x1="237.828" y1="104" x2="357.828" y2="104" gradientUnits="userSpaceOnUse">
<stop stop-color="#87AAF9"/>
<stop offset="1" stop-color="#87AAF9" stop-opacity="0.3"/>
</linearGradient>
<linearGradient id="paint5_linear_51_381" x1="237.828" y1="124" x2="357.828" y2="124" gradientUnits="userSpaceOnUse">
<stop stop-color="#87AAF9"/>
<stop offset="1" stop-color="#87AAF9" stop-opacity="0.3"/>
</linearGradient>
<linearGradient id="paint6_linear_51_381" x1="237.828" y1="144" x2="357.828" y2="144" gradientUnits="userSpaceOnUse">
<stop stop-color="#87AAF9"/>
<stop offset="1" stop-color="#87AAF9" stop-opacity="0.3"/>
</linearGradient>
<linearGradient id="paint7_linear_51_381" x1="323" y1="171" x2="373" y2="221" gradientUnits="userSpaceOnUse">
<stop stop-color="white"/>
<stop offset="0.796875" stop-color="white" stop-opacity="0"/>
</linearGradient>
<clipPath id="clip0_51_381">
<rect width="460" height="300" fill="white"/>
</clipPath>
</defs>
</svg>
