<svg width="820" height="412" viewBox="0 0 820 412" fill="none" xmlns="http://www.w3.org/2000/svg">
<g clip-path="url(#clip0_189_4221)">
<rect width="820" height="412" fill="#ECF1FE"/>
<rect x="228" y="54" width="592" height="152" fill="url(#paint0_radial_189_4221)"/>
<rect x="228" y="356" width="228" height="150" transform="rotate(-180 228 356)" fill="url(#paint1_radial_189_4221)"/>
<circle cx="229" cy="206" r="431" fill="#CEDBFC"/>
<circle cx="229" cy="206" r="304" fill="#F3F6FE"/>
<path opacity="0.5" d="M379 206C379 288.843 311.843 356 229 356C207.279 356 186.637 351.383 168 343.077M79 206C79 123.157 146.157 56 229 56C253.08 56 275.835 61.6741 296 71.7582" stroke="#215EF3" stroke-width="8"/>
<path d="M150.965 128.588C136.585 143.129 127.091 160.667 122.469 179.166C119.583 190.715 118.597 202.639 119.508 214.442C120.244 223.987 122.221 233.454 125.437 242.579M336.422 181.395C342.718 209.029 338.238 238.635 322.945 263.497" stroke="#215EF3" stroke-width="8"/>
<path opacity="0.15" d="M229 336C300.797 336 359 277.797 359 206C359 187.511 355.14 169.924 348.183 154" stroke="#215EF3" stroke-width="8"/>
<path d="M212 174.758V238H197.586L189.031 209.25V238H175.281V174.758H189.031L198.25 203.234V174.758H212ZM235.086 174.758V225.344H245.086V238H218.641V174.758H235.086ZM249.109 174.758H265.672C270.151 174.758 273.589 175.109 275.984 175.812C278.406 176.516 280.216 177.531 281.414 178.859C282.638 180.188 283.458 181.802 283.875 183.703C284.318 185.578 284.539 188.495 284.539 192.453V197.961C284.539 201.997 284.122 204.94 283.289 206.789C282.456 208.638 280.919 210.057 278.68 211.047C276.466 212.036 273.562 212.531 269.969 212.531H265.555V238H249.109V174.758ZM265.555 185.578V201.672C266.023 201.698 266.427 201.711 266.766 201.711C268.276 201.711 269.318 201.346 269.891 200.617C270.49 199.862 270.789 198.312 270.789 195.969V190.773C270.789 188.612 270.451 187.206 269.773 186.555C269.096 185.904 267.69 185.578 265.555 185.578Z" fill="#215EF3"/>
<rect x="459" y="41" width="90" height="90" rx="45" fill="#87AAF9"/>
<path d="M509.163 66C520.225 66 529.334 75.8777 529.334 88.0945V88.4848L532.588 95.503C532.717 95.7622 532.717 96.1526 532.588 96.5419C532.457 96.8021 532.197 97.1925 531.936 97.3226L526.735 99.7928V110.32H518.927V116H498.11V106.681C492.384 102.522 489 95.6342 489 88.2256C489 75.8788 498.11 66.0011 509.171 66.0011L509.163 66Z" fill="#215EF3"/>
<path fill-rule="evenodd" clip-rule="evenodd" d="M478.666 78.0945C478.666 65.8777 487.775 56 498.837 56L498.829 56.0011C509.89 56.0011 519 65.8788 519 78.2256C519 85.6342 515.616 92.5222 509.89 96.6809V106H489.073V100.32H481.265V89.7928L476.064 87.3226C475.803 87.1925 475.543 86.8021 475.412 86.5419C475.283 86.1526 475.283 85.7622 475.412 85.503L478.666 78.4848V78.0945ZM502.583 65.7692C502.284 64.8479 500.98 64.8479 500.681 65.7692L499.257 70.1521C499.123 70.5641 498.739 70.843 498.306 70.843H493.697C492.729 70.843 492.326 72.0827 493.11 72.6521L496.838 75.3608C497.188 75.6154 497.335 76.0668 497.201 76.4788L495.777 80.8617C495.478 81.783 496.532 82.5491 497.316 81.9797L501.044 79.271C501.395 79.0163 501.869 79.0163 502.22 79.271L505.948 81.9797C506.732 82.5491 507.786 81.783 507.487 80.8617L506.063 76.4788C505.929 76.0668 506.076 75.6154 506.426 75.3608L510.154 72.6521C510.938 72.0827 510.535 70.843 509.566 70.843H504.958C504.525 70.843 504.141 70.5641 504.007 70.1521L502.583 65.7692Z" fill="white"/>
<rect x="455" y="37" width="98" height="98" rx="49" stroke="#87AAF9" stroke-width="2"/>
<rect x="485" y="163" width="90" height="90" rx="45" fill="#87AAF9"/>
<path fill-rule="evenodd" clip-rule="evenodd" d="M559 196.75C559 194.541 557.209 192.75 555 192.75H515C512.791 192.75 511 194.541 511 196.75V223.75C511 225.959 512.791 227.75 515 227.75H553.5L559 233.25L559 227.75V227.25V196.75ZM548 213.75C545.791 213.75 544 211.959 544 209.75C544 207.541 545.791 205.75 548 205.75C550.209 205.75 552 207.541 552 209.75C552 211.959 550.209 213.75 548 213.75ZM535 213.75C532.791 213.75 531 211.959 531 209.75C531 207.541 532.791 205.75 535 205.75C537.209 205.75 539 207.541 539 209.75C539 211.959 537.209 213.75 535 213.75ZM518 209.75C518 211.959 519.791 213.75 522 213.75C524.209 213.75 526 211.959 526 209.75C526 207.541 524.209 205.75 522 205.75C519.791 205.75 518 207.541 518 209.75Z" fill="#215EF3"/>
<path fill-rule="evenodd" clip-rule="evenodd" d="M501 186.75C501 184.541 502.791 182.75 505 182.75H545C547.209 182.75 549 184.541 549 186.75V213.75C549 215.959 547.209 217.75 545 217.75H506.5L501 223.25L501 217.75V217.25V186.75ZM512 203.75C514.209 203.75 516 201.959 516 199.75C516 197.541 514.209 195.75 512 195.75C509.791 195.75 508 197.541 508 199.75C508 201.959 509.791 203.75 512 203.75ZM525 203.75C527.209 203.75 529 201.959 529 199.75C529 197.541 527.209 195.75 525 195.75C522.791 195.75 521 197.541 521 199.75C521 201.959 522.791 203.75 525 203.75ZM542 199.75C542 201.959 540.209 203.75 538 203.75C535.791 203.75 534 201.959 534 199.75C534 197.541 535.791 195.75 538 195.75C540.209 195.75 542 197.541 542 199.75Z" fill="white"/>
<rect x="481" y="159" width="98" height="98" rx="49" stroke="#87AAF9" stroke-width="2"/>
<rect x="459" y="283" width="90" height="90" rx="45" fill="#87AAF9"/>
<rect width="38.7097" height="5.80645" transform="matrix(1 0 0 -1 504 358)" fill="#215EF3"/>
<path d="M499.16 353.161C499.16 355.834 501.327 358 503.999 358V358V346.387H499.16V353.161Z" fill="#04194E"/>
<path d="M499.16 354.129C499.16 356.267 500.893 358 503.031 358H503.999V352.194H501.096C500.027 352.194 499.16 353.06 499.16 354.129V354.129Z" fill="#215EF3"/>
<path d="M465.29 298C465.29 298 496.258 298 500.129 298C504 298 504 303.806 504 303.806V352.194C504 352.194 504 346.387 500.129 346.387C496.258 346.387 465.29 346.387 465.29 346.387V298Z" fill="white"/>
<rect x="504" y="303.806" width="38.7097" height="48.3871" fill="#ECF1FE"/>
<rect x="455" y="279" width="98" height="98" rx="49" stroke="#87AAF9" stroke-width="2"/>
<rect x="605" y="103" width="90" height="90" rx="45" fill="#87AAF9"/>
<path d="M667.305 169.405L662.367 165.422C661.234 164.528 659.615 164.447 658.481 165.341L654.272 168.429C653.786 168.836 653.057 168.754 652.572 168.267L646.257 162.577L640.591 156.237C640.105 155.75 640.105 155.099 640.429 154.53L643.505 150.304C644.395 149.166 644.314 147.54 643.424 146.402L639.457 141.444C638.243 139.981 636.057 139.819 634.681 141.2L630.471 145.427C629.824 146.077 629.5 146.971 629.5 147.865C629.905 156.156 633.629 164.04 639.133 169.567C644.638 175.094 652.491 178.833 660.748 179.24C661.638 179.321 662.529 178.915 663.177 178.264L667.386 174.038C668.924 172.819 668.843 170.543 667.305 169.405V169.405Z" fill="#215EF3"/>
<path d="M660.305 162.405L655.367 158.422C654.234 157.528 652.615 157.447 651.481 158.341L647.272 161.429C646.786 161.836 646.057 161.754 645.572 161.267L639.257 155.577L633.591 149.237C633.105 148.75 633.105 148.099 633.429 147.53L636.505 143.304C637.395 142.166 637.314 140.54 636.424 139.402L632.457 134.444C631.243 132.981 629.057 132.819 627.681 134.2L623.471 138.427C622.824 139.077 622.5 139.971 622.5 140.865C622.905 149.156 626.629 157.04 632.133 162.567C637.638 168.094 645.491 171.833 653.748 172.24C654.638 172.321 655.529 171.915 656.177 171.264L660.386 167.038C661.924 165.819 661.843 163.543 660.305 162.405V162.405Z" fill="white"/>
<path d="M668.5 151.75C668.5 136.838 656.859 124.75 642.5 124.75" stroke="white" stroke-width="4"/>
<path d="M660.5 151.75C660.5 141.809 652.441 133.75 642.5 133.75" stroke="white" stroke-width="4"/>
<path d="M677.5 151.75C677.5 132.42 661.83 116.75 642.5 116.75" stroke="white" stroke-width="4"/>
<rect x="601" y="99" width="98" height="98" rx="49" stroke="#87AAF9" stroke-width="2"/>
<rect x="605" y="223" width="90" height="90" rx="45" fill="#87AAF9"/>
<rect x="622.18" y="249.154" width="44.8718" height="53.8461" rx="4" fill="#215EF3"/>
<rect opacity="0.75" x="632.948" y="243.769" width="44.8718" height="53.8461" rx="4" fill="#ECF1FE"/>
<rect x="627.565" y="238.385" width="44.8718" height="53.8461" rx="4" fill="white"/>
<rect x="637.435" y="236.59" width="25.1282" height="6.28205" rx="3.14102" fill="#215EF3"/>
<rect width="8.97435" height="9.87179" rx="4" transform="matrix(1 0 0 -1 645.513 242.872)" fill="#215EF3"/>
<circle cx="638.334" cy="261.718" r="2.69231" fill="#87AAF9"/>
<circle cx="638.334" cy="253.641" r="2.69231" fill="#87AAF9"/>
<rect x="642.821" y="251.846" width="21.5384" height="3.58974" rx="1.79487" fill="#87AAF9"/>
<rect x="642.821" y="259.923" width="21.5384" height="3.58974" rx="1.79487" fill="#87AAF9"/>
<rect x="601" y="219" width="98" height="98" rx="49" stroke="#87AAF9" stroke-width="2"/>
</g>
<defs>
<radialGradient id="paint0_radial_189_4221" cx="0" cy="0" r="1" gradientUnits="userSpaceOnUse" gradientTransform="translate(228 206) scale(560 152)">
<stop stop-color="white"/>
<stop offset="1" stop-color="white" stop-opacity="0"/>
</radialGradient>
<radialGradient id="paint1_radial_189_4221" cx="0" cy="0" r="1" gradientUnits="userSpaceOnUse" gradientTransform="translate(228 506) scale(215.676 150)">
<stop stop-color="white"/>
<stop offset="1" stop-color="white" stop-opacity="0"/>
</radialGradient>
<clipPath id="clip0_189_4221">
<rect width="820" height="412" fill="white"/>
</clipPath>
</defs>
</svg>
