<svg width="40" height="40" viewBox="0 0 40 40" fill="none" xmlns="http://www.w3.org/2000/svg">
<mask id="mask0" style="mask-type:alpha" maskUnits="userSpaceOnUse" x="2" y="2" width="36" height="36">
<path d="M38 20C38 29.9411 29.9411 38 20 38C10.0589 38 2 29.9411 2 20C2 10.0589 10.0589 2 20 2C26.2408 2 31 5.5 31.5 11.5C32 17.5 38 16.2997 38 20Z" fill="#C4C4C4"/>
</mask>
<g mask="url(#mask0)">
<path d="M38 20C38 29.9411 29.9411 38 20 38C10.0589 38 2 29.9411 2 20C2 10.0589 10.0589 2 20 2C26.2408 2 31 5.5 31.5 11.5C32 17.5 38 16.2997 38 20Z" fill="url(#paint0_radial)"/>
<g style="mix-blend-mode:overlay">
<path d="M38 20C38 29.9411 29.9411 38 20 38C10.0589 38 2 29.9411 2 20C2 10.0589 10.0589 2 20 2C26.2408 2 31 5.5 31.5 11.5C32 17.5 38 16.2997 38 20Z" fill="url(#paint1_linear)"/>
</g>
<g style="mix-blend-mode:overlay">
<path d="M37.4641 15.7657C29.8864 12.691 24.0873 14.6118 20.5951 19.0809C17.1028 23.55 17.6099 32.0271 8.01278 31.5992C3.21422 31.3853 1.24733 34.1427 2.69719 37.4904C4.14704 40.838 9.01508 44.7794 17.8849 46.9298C26.7548 49.0801 33.2755 47.3756 37.8235 44.2945C42.3715 41.2134 44.9467 36.7558 45.9258 33.4C47.8838 26.6885 46.3099 19.3556 37.4641 15.7657Z" stroke="url(#paint2_linear)" stroke-width="0.35" stroke-miterlimit="10"/>
<path d="M36.9522 16.2425C29.5533 13.249 23.8886 15.128 20.4759 19.4916C17.0633 23.8551 17.5465 32.1294 8.1832 31.7147C3.49065 31.502 1.5763 34.1903 2.98377 37.462C4.39124 40.7338 9.12024 44.5759 17.8076 46.6883C26.495 48.8008 32.8585 47.1299 37.3113 44.1188C41.764 41.1077 44.288 36.7473 45.2494 33.4609C47.1683 26.8837 45.6106 19.7199 36.9522 16.2425Z" stroke="url(#paint3_linear)" stroke-width="0.35" stroke-miterlimit="10"/>
<path d="M36.4416 16.7198C29.2119 13.8268 23.6899 15.6442 20.3581 19.9027C17.0263 24.1613 17.487 32.2332 8.34207 31.8266C3.76842 31.6192 1.90413 34.2373 3.2593 37.429C4.60369 40.5944 9.21435 44.3677 17.7205 46.4428C26.1962 48.5035 32.4274 46.8797 36.788 43.9384C41.1485 40.997 43.6227 36.7374 44.5638 33.5164C46.4529 27.0788 44.8995 20.1053 36.4416 16.7198Z" stroke="url(#paint4_linear)" stroke-width="0.35" stroke-miterlimit="10"/>
<path d="M35.929 17.1965C28.8727 14.394 23.4905 16.1603 20.237 20.3128C16.9836 24.4652 17.4192 32.3338 8.50434 31.9388C4.04152 31.7419 2.23238 34.2847 3.53949 37.3967C4.83149 40.4719 9.3133 44.1632 17.6387 46.1996C25.9109 48.2136 32.0085 46.6334 36.2701 43.7605C40.5317 40.8875 42.9546 36.7251 43.8818 33.5751C45.7367 27.2738 44.1972 20.4816 35.929 17.1965Z" stroke="url(#paint5_linear)" stroke-width="0.35" stroke-miterlimit="10"/>
<path d="M35.4174 17.6748C28.5361 14.9622 23.2888 16.6753 20.1199 20.7243C16.951 24.7732 17.3628 32.4389 8.67127 32.0542C4.32189 31.8617 2.56457 34.3336 3.8231 37.3671C5.06045 40.3539 9.41673 43.9589 17.5622 45.9585C25.6333 47.9268 31.5922 46.388 35.7568 43.5858C39.9215 40.7835 42.2891 36.721 43.2039 33.628C45.0207 27.4687 43.4927 20.8567 35.4174 17.6748Z" stroke="url(#paint6_linear)" stroke-width="0.35" stroke-miterlimit="10"/>
<path d="M34.9041 18.1509C28.1974 15.5295 23.0923 17.1924 19.9963 21.1345C16.9003 25.0765 17.2893 32.5441 8.83267 32.1628C4.59443 31.9767 2.8907 34.377 4.10189 37.3325C5.28406 40.2323 9.51097 43.7565 17.4735 45.7123C25.3486 47.6369 31.1589 46.1354 35.2308 43.4042C39.3027 40.6729 41.6249 36.7043 42.5178 33.6905C44.3058 27.6654 42.7885 21.2319 34.9041 18.1509Z" stroke="url(#paint7_linear)" stroke-width="0.35" stroke-miterlimit="10"/>
<path d="M34.3931 18.6283C27.8598 16.0974 22.8933 17.7087 19.8812 21.5455C16.869 25.3823 17.232 32.6418 8.9993 32.2797C4.86975 32.0989 3.2168 34.4308 4.38148 37.3028C5.51596 40.1013 9.61173 43.5455 17.391 45.4688C25.063 47.3454 30.7427 45.8873 34.7158 43.2275C38.689 40.5676 40.9634 36.6948 41.8388 33.7505C43.59 27.8606 42.0842 21.6074 34.3931 18.6283Z" stroke="url(#paint8_linear)" stroke-width="0.35" stroke-miterlimit="10"/>
<path d="M33.88 19.1087C27.5213 16.669 22.6934 18.2286 19.7571 21.9583C16.7976 25.7014 17.1609 32.7493 9.15806 32.3959C5.14565 32.221 3.54732 34.4788 4.66062 37.2756C5.74117 39.9875 9.71017 43.3448 17.3103 45.2258C24.7862 47.0587 30.3189 45.6445 34.1977 43.0492C38.0765 40.4539 40.3 36.6842 41.1622 33.8126C42.8749 28.0557 41.3794 21.9852 33.88 19.1087Z" stroke="url(#paint9_linear)" stroke-width="0.35" stroke-miterlimit="10"/>
<path d="M33.369 19.5817C27.1855 17.2318 22.4956 18.741 19.6426 22.3667C16.7592 26.0056 17.1037 32.8456 9.32643 32.5076C5.42394 32.3386 3.88044 34.5253 4.94568 37.2424C5.97384 39.864 9.81451 43.1382 17.2306 44.985C24.503 46.7711 29.8988 45.3976 33.6831 42.874C37.4674 40.3504 39.6384 36.6775 40.4796 33.8695C42.1561 28.2568 40.6758 22.3579 33.369 19.5817Z" stroke="url(#paint10_linear)" stroke-width="0.35" stroke-miterlimit="10"/>
<path d="M32.8575 20.0587C26.8485 17.7999 22.2972 19.2575 19.5201 22.776C16.714 26.3113 17.037 32.9465 9.48604 32.6186C5.6977 32.4557 4.2053 34.5698 5.22443 37.2093C6.19898 39.7402 9.91184 42.93 17.1455 44.7389C24.2242 46.4824 29.4752 45.1478 33.1618 42.6931C36.8485 40.2385 38.9719 36.6643 39.7932 33.9276C41.4436 28.446 39.9733 22.734 32.8575 20.0587Z" stroke="url(#paint11_linear)" stroke-width="0.35" stroke-miterlimit="10"/>
<path d="M32.3468 20.5359C26.5145 18.3634 22.0985 19.7736 19.4054 23.1899C16.6748 26.6223 16.9788 33.0538 9.65597 32.7351C5.97931 32.5774 4.54245 34.6221 5.51052 37.1822C6.43393 39.6233 10.0165 42.7276 17.0689 44.4991C23.9496 46.1967 29.0584 44.905 32.6433 42.5219C36.2282 40.1388 38.3074 36.6591 39.1139 33.9886C40.7281 28.641 39.2693 23.1093 32.3468 20.5359Z" stroke="url(#paint12_linear)" stroke-width="0.35" stroke-miterlimit="10"/>
<path d="M31.834 21.0123C26.1743 18.9358 21.9001 20.29 19.2797 23.5964C16.6265 26.9251 16.9151 33.1544 9.81364 32.8437C6.24937 32.6928 4.86505 34.6684 5.78486 37.1458C6.65538 39.4979 10.1064 42.5336 16.9813 44.2519C23.6603 45.9122 28.6324 44.6541 32.1249 42.3378C35.6173 40.0215 37.6432 36.6439 38.4318 34.0398C40.0117 28.8358 38.5656 23.4848 31.834 21.0123Z" stroke="url(#paint13_linear)" stroke-width="0.35" stroke-miterlimit="10"/>
<path d="M31.3256 21.4921C25.8415 19.5042 21.7053 20.8079 19.1645 24.0088C16.5862 27.2329 16.8496 33.2558 9.98507 32.9611C6.53506 32.8091 5.20608 34.7124 6.07296 37.1181C6.89234 39.3805 10.2138 42.3325 16.9067 44.0117C23.3841 45.6347 28.2157 44.4086 31.6154 42.1633C35.0151 39.918 36.9885 36.6371 37.7607 34.103C39.2965 29.0311 37.8636 23.8597 31.3256 21.4921Z" stroke="url(#paint14_linear)" stroke-width="0.35" stroke-miterlimit="10"/>
<path d="M30.8095 21.9672C25.5057 20.0671 21.5093 21.3269 19.0411 24.4178C16.5452 27.5433 16.7819 33.3564 10.1413 33.0706C6.79543 32.9279 5.52675 34.7609 6.35331 37.0858C7.11856 39.2587 10.3111 42.1288 16.8232 43.7664C23.1009 45.3471 27.7919 44.1602 31.0964 41.9849C34.4009 39.8096 36.3193 36.6243 37.069 34.1575C38.5817 29.2266 37.1603 24.2354 30.8095 21.9672Z" stroke="url(#paint15_linear)" stroke-width="0.35" stroke-miterlimit="10"/>
<path d="M30.2979 22.444C25.1635 20.6372 21.3112 21.839 18.9211 24.828C16.5007 27.8506 16.7177 33.4582 10.3041 33.1842C7.07612 33.0492 5.85658 34.8073 6.62785 37.0523C7.34196 39.1354 10.4087 41.9234 16.7388 43.5219C22.8179 45.0579 27.3722 43.9147 30.5758 41.8056C33.7795 39.6964 35.6567 36.6155 36.3947 34.2177C37.8648 29.4225 36.4566 24.6109 30.2979 22.444Z" stroke="url(#paint16_linear)" stroke-width="0.35" stroke-miterlimit="10"/>
<path d="M29.7864 22.921C24.8209 21.2014 21.112 22.3608 18.8013 25.2413C16.4562 28.1652 16.6537 33.5631 10.4677 33.2997C7.35136 33.1697 6.18737 34.8586 6.90634 37.0235C7.56846 39.0224 10.5059 41.7122 16.6519 43.2765C22.532 44.769 26.9407 43.663 30.0541 41.6259C33.1674 39.5888 34.9874 36.6055 35.7089 34.2746C37.1481 29.6215 35.7542 24.987 29.7864 22.921Z" stroke="url(#paint17_linear)" stroke-width="0.35" stroke-miterlimit="10"/>
<path d="M29.2742 23.3976C24.4908 21.7723 20.913 22.8769 18.6817 25.6488C16.417 28.4617 16.5911 33.6627 10.6317 33.4123C7.62773 33.2892 6.51856 34.907 7.187 36.9911C7.79902 38.8978 10.6009 41.5145 16.5696 43.0358C22.2493 44.4843 26.5175 43.4175 29.5339 41.4511C32.5502 39.4847 34.3235 36.5947 35.0206 34.3319C36.4339 29.8128 35.0517 25.3614 29.2742 23.3976Z" stroke="url(#paint18_linear)" stroke-width="0.35" stroke-miterlimit="10"/>
<path d="M28.762 23.8745C24.1561 22.3401 20.7152 23.3937 18.5622 26.0595C16.3733 28.7725 16.5275 33.765 10.7961 33.524C7.90436 33.4048 6.85125 34.952 7.46935 36.9583C8.02764 38.7814 10.6996 41.3085 16.4948 42.7912C21.9759 44.1951 26.1024 43.17 29.0257 41.2686C31.9489 39.3672 33.6683 36.5807 34.3556 34.3861C35.7181 30.0079 34.3485 25.7374 28.762 23.8745Z" stroke="url(#paint19_linear)" stroke-width="0.35" stroke-miterlimit="10"/>
<path d="M28.2515 24.3518C23.8183 22.9063 20.5166 23.91 18.4433 26.4703C16.3304 29.0791 16.468 33.8689 10.959 33.6405C8.17961 33.5282 7.18256 35.0048 7.75095 36.925C8.25986 38.6576 10.8024 41.104 16.4065 42.5452C21.6873 43.905 25.6744 42.9196 28.5009 41.0919C31.3274 39.2642 32.9971 36.5712 33.6657 34.4485C35.0028 30.2031 33.6472 26.1139 28.2515 24.3518Z" stroke="url(#paint20_linear)" stroke-width="0.35" stroke-miterlimit="10"/>
<path d="M27.738 24.8295C23.4838 23.4682 20.3193 24.4269 18.3231 26.8806C16.2858 29.3865 16.3999 33.9692 11.1232 33.7505C8.45702 33.6396 7.51127 35.0466 8.02972 36.8949C8.48873 38.5384 10.8993 40.8999 16.3226 42.3026C21.4049 43.6177 25.2509 42.6728 27.9809 40.9145C30.7109 39.1563 32.3331 36.562 32.9833 34.507C34.2862 30.3979 32.945 26.4887 27.738 24.8295Z" stroke="url(#paint21_linear)" stroke-width="0.35" stroke-miterlimit="10"/>
<path d="M27.2323 25.3087C23.1528 24.0415 20.1255 24.945 18.2085 27.2973C16.2485 29.6996 16.3398 34.077 11.292 33.8694C8.73594 33.7673 7.85225 35.1033 8.31469 36.87C8.72296 38.4297 11.0035 40.7016 16.2461 42.0656C21.1281 43.3368 24.8335 42.4311 27.4683 40.7428C30.1031 39.0545 31.6734 36.5587 32.3078 34.5724C33.5707 30.5928 32.2452 26.8642 27.2323 25.3087Z" stroke="url(#paint22_linear)" stroke-width="0.35" stroke-miterlimit="10"/>
<path d="M26.7143 25.7831C22.8116 24.6051 19.9218 25.4594 18.0848 27.702C16.2004 30.0014 16.2719 34.1733 11.4516 33.9762C9.01049 33.882 8.18409 35.148 8.59383 36.8287C8.95012 38.3041 11.1002 40.4876 16.1608 41.8124C20.8442 43.0389 24.408 42.1748 26.9468 40.5548C29.4857 38.9347 31.0068 36.5384 31.624 34.6202C32.8565 30.7887 31.5442 27.2397 26.7143 25.7831Z" stroke="url(#paint23_linear)" stroke-width="0.35" stroke-miterlimit="10"/>
<path d="M26.2033 26.2601C22.4767 25.1665 19.7229 25.9754 17.9642 28.1118C16.1608 30.3092 16.2083 34.2752 11.6151 34.09C9.28314 33.9998 8.52075 35.1972 8.87241 36.8011C9.1792 38.1933 11.1956 40.2855 16.0768 41.5723C20.5616 42.7541 23.9842 41.9304 26.4273 40.3816C28.8705 38.8327 30.3434 36.5263 30.9409 34.6824C32.1397 30.986 30.8436 27.6163 26.2033 26.2601Z" stroke="url(#paint24_linear)" stroke-width="0.35" stroke-miterlimit="10"/>
<path d="M25.6909 26.7368C22.142 25.7371 19.5199 26.4899 17.8445 28.5224C16.1147 30.6145 16.1444 34.3773 11.7788 34.2026C9.55973 34.1181 8.8566 35.2477 9.15276 36.7688C9.41077 38.0795 11.296 40.0815 15.9939 41.3287C20.2796 42.467 23.5617 41.6826 25.9084 40.2031C28.255 38.7237 29.6766 36.5217 30.2579 34.7405C31.4242 31.1797 30.1438 27.9906 25.6909 26.7368Z" stroke="url(#paint25_linear)" stroke-width="0.35" stroke-miterlimit="10"/>
<path d="M25.1795 27.2138C21.808 26.302 19.3266 27.0084 17.7258 28.9332C16.0716 30.9224 16.0816 34.4797 11.9419 34.3193C9.83456 34.2399 8.91735 35.3719 9.43311 36.7392C9.40281 37.9862 11.3956 39.8786 15.9153 41.0881C20.0012 42.1812 23.1434 41.4378 25.3949 40.0283C27.6463 38.6189 29.0166 36.5141 29.582 34.8016C30.7092 31.375 29.4445 28.3665 25.1795 27.2138Z" stroke="url(#paint26_linear)" stroke-width="0.35" stroke-miterlimit="10"/>
<path d="M24.6692 27.687C21.4763 26.8637 19.1289 27.5223 17.6067 29.344C16.0298 31.2296 16.0182 34.5821 12.1035 34.4282C10.1078 34.3539 9.23488 35.4191 9.71033 36.7056C9.61938 37.8646 11.4921 39.6715 15.8274 40.8409C19.7135 41.8888 22.714 41.187 24.8708 39.8463C27.0276 38.5056 28.346 36.4993 28.8938 34.8562C29.99 31.5687 28.7472 28.7434 24.6692 27.687Z" stroke="url(#paint27_linear)" stroke-width="0.35" stroke-miterlimit="10"/>
<path d="M24.1561 28.1676C21.1407 27.4322 18.929 28.0423 17.4867 29.7543C15.9854 31.537 15.9541 34.684 12.2694 34.5417C10.3884 34.4723 9.55796 35.4713 9.99537 36.6751C9.83583 37.7443 11.5897 39.4662 15.7481 40.5986C19.4356 41.6017 22.2949 40.9404 24.3553 39.6692C26.4156 38.3979 27.686 36.4916 28.2139 34.9198C29.2774 31.765 28.0511 29.1148 24.1561 28.1676Z" stroke="url(#paint28_linear)" stroke-width="0.35" stroke-miterlimit="10"/>
<path d="M23.6435 28.6454C20.8078 27.9961 18.7301 28.5584 17.3674 30.1648C15.9421 31.8433 15.8905 34.7861 12.4329 34.6556C10.6625 34.5938 9.87794 35.5223 10.2793 36.6456C10.064 37.6289 11.6966 39.2648 15.6693 40.3565C19.1582 41.3149 21.8765 40.694 23.8416 39.4928C25.8067 38.2915 27.0238 36.4874 27.5394 34.9756C28.5617 31.96 27.3526 29.4939 23.6435 28.6454Z" stroke="url(#paint29_linear)" stroke-width="0.35" stroke-miterlimit="10"/>
<path d="M23.1313 29.1222C20.4752 28.5589 18.531 29.0746 17.2467 30.5749C15.8982 32.1511 15.8268 34.8883 12.5968 34.7684C10.9393 34.7122 10.1965 35.5728 10.5561 36.6118C10.2792 37.5097 11.7922 39.0589 15.5829 40.1114C18.8721 41.0246 21.4504 40.4447 23.317 39.3178C25.1836 38.1909 26.3565 36.474 26.8525 35.0366C27.8446 32.1546 26.6571 29.8687 23.1313 29.1222Z" stroke="url(#paint30_linear)" stroke-width="0.35" stroke-miterlimit="10"/>
<path d="M22.6191 29.5989C20.1444 29.1208 18.3332 29.5912 17.1267 30.9867C15.8561 32.458 15.7631 34.9904 12.7602 34.8823C11.2144 34.8312 10.5164 35.6237 10.8362 36.5807C10.4954 37.3878 11.8921 38.8531 15.5016 39.8683C18.5904 40.7375 21.0276 40.198 22.8011 39.1362C24.3534 38.2075 25.5404 36.7803 26.168 35.0882C27.1313 32.3506 25.963 30.2439 22.6191 29.5989Z" stroke="url(#paint31_linear)" stroke-width="0.35" stroke-miterlimit="10"/>
<path d="M22.1083 30.0763C19.8123 29.6867 18.1344 30.1076 17.0059 31.4011C15.8114 32.7683 15.6977 35.0977 12.9228 34.9989C11.4899 34.9534 10.8344 35.6799 11.1157 36.5553C10.7155 37.275 11.9897 38.6538 15.4172 39.6298C18.3079 40.4531 20.6035 39.9553 22.2817 38.9634C23.7573 38.0959 24.8902 36.7533 25.4945 35.1562C26.4157 32.5458 25.2709 30.6186 22.1083 30.0763Z" stroke="url(#paint32_linear)" stroke-width="0.35" stroke-miterlimit="10"/>
<path d="M21.5967 30.553C19.4852 30.2414 17.9359 30.6238 16.8886 31.8081C15.7698 33.0753 15.6347 35.1927 13.0889 35.108C11.7669 35.0659 11.1564 35.7272 11.3989 36.5182C10.9371 37.1524 12.091 38.4427 15.3373 39.3813C18.0287 40.1582 20.1839 39.7026 21.7657 38.7801C23.1597 37.9689 24.2321 36.7078 24.8062 35.2046C25.7005 32.7409 24.5809 30.9925 21.5967 30.553Z" stroke="url(#paint33_linear)" stroke-width="0.35" stroke-miterlimit="10"/>
<path d="M21.251 31.015C19.324 30.7812 17.9034 31.1251 16.9357 32.2039C15.8948 33.3591 15.7386 35.2777 13.4167 35.2121C12.2076 35.1756 11.64 35.7666 11.8434 36.4773C11.3209 37.0236 12.3547 38.2284 15.4191 39.1279C17.9119 39.86 19.926 39.4449 21.4126 38.5924C22.7289 37.8417 23.7456 36.6643 24.2939 35.2556C25.1512 32.9212 24.0573 31.3503 21.251 31.015Z" stroke="url(#paint34_linear)" stroke-width="0.35" stroke-miterlimit="10"/>
<path d="M20.5718 31.5063C18.8307 31.351 17.5374 31.6559 16.6493 32.6291C15.6819 33.6863 15.508 35.3945 13.4157 35.3345C12.3173 35.3057 11.7945 35.8286 11.9576 36.4585C11.3727 36.9175 12.287 38.0356 15.1713 38.8982C17.4675 39.5778 19.3384 39.208 20.7274 38.4274C21.965 37.7339 22.9237 36.6371 23.4431 35.3207C24.2679 33.1321 23.205 31.7367 20.5718 31.5063Z" stroke="url(#paint35_linear)" stroke-width="0.35" stroke-miterlimit="10"/>
<path d="M20.061 31.985C18.5044 31.9077 17.339 32.1723 16.5293 33.0395C15.6392 33.993 15.445 35.4969 13.5798 35.4487C12.5941 35.4225 12.115 35.8798 12.2411 36.4245C11.5943 36.7951 12.3891 37.8265 15.0947 38.6528C17.189 39.292 18.92 38.9632 20.2154 38.2489C21.3742 37.6161 22.2767 36.6041 22.7708 35.3834C23.5552 33.3284 22.5214 32.1062 20.061 31.985Z" stroke="url(#paint36_linear)" stroke-width="0.35" stroke-miterlimit="10"/>
<path d="M19.5438 32.4596C18.1748 32.4527 17.1349 32.6863 16.4027 33.4528C15.5882 34.3034 15.3742 35.6018 13.7366 35.5642C12.8688 35.5457 12.4278 35.9336 12.5104 36.3947C11.8072 36.6776 12.4774 37.6202 14.9975 38.4088C16.8943 39.0009 18.4811 38.7199 19.6831 38.0677C20.7633 37.4945 21.6091 36.566 22.0769 35.4397C22.8369 33.5223 21.8398 32.4722 19.5438 32.4596Z" stroke="url(#paint37_linear)" stroke-width="0.35" stroke-miterlimit="10"/>
<path d="M19.0367 32.9382C18.537 32.8635 18.0272 32.9083 17.5496 33.0689C17.0719 33.2295 16.6401 33.5013 16.2899 33.8617C15.5515 34.6082 15.3172 35.7023 13.9072 35.6753C13.1456 35.661 12.755 35.9846 12.7993 36.3672C12.0294 36.5626 12.5862 37.4181 14.9233 38.17C16.6213 38.7144 18.0692 38.4719 19.1729 37.8971C20.1742 37.3828 20.9627 36.5369 21.4032 35.5045C22.1223 33.7148 21.1094 32.4637 19.0367 32.9382Z" stroke="url(#paint38_linear)" stroke-width="0.35" stroke-miterlimit="10"/>
<path d="M18.5243 33.4148C18.0924 33.3807 17.6587 33.4394 17.2525 33.5871C16.8464 33.7349 16.4775 33.9681 16.1708 34.2709C15.5072 34.9128 15.2539 35.8031 14.0709 35.7879C13.4222 35.7793 13.0727 36.0333 13.0817 36.3299C12.25 36.4368 12.6877 37.2044 14.8431 37.9202C16.3435 38.4174 17.6493 38.2178 18.6578 37.7129C19.5802 37.2586 20.3114 36.4956 20.7239 35.5569C21.4102 33.9143 20.4095 32.8279 18.5243 33.4148Z" stroke="url(#paint39_linear)" stroke-width="0.35" stroke-miterlimit="10"/>
<path d="M18.0138 33.8922C17.2831 33.9043 16.5841 34.1856 16.0518 34.6817C15.4626 35.2201 15.1881 35.9116 14.2354 35.9008C13.6983 35.8973 13.3931 36.0844 13.3636 36.2996C12.4694 36.3192 12.7897 36.9952 14.7628 37.676C15.307 37.878 15.8858 37.9701 16.4652 37.9469C17.0446 37.9236 17.6129 37.7856 18.137 37.5409C18.9815 37.147 19.6563 36.4665 20.0408 35.6207C20.6912 34.1079 19.7091 33.1917 18.0138 33.8922Z" stroke="url(#paint40_linear)" stroke-width="0.35" stroke-miterlimit="10"/>
<path d="M17.4992 34.3725C16.8876 34.5767 16.3367 34.7514 15.93 35.0958C15.417 35.5228 15.1257 36.0087 14.3942 36.013C13.9701 36.0151 13.7085 36.1337 13.6396 36.2656C12.6843 36.1985 12.8854 36.7836 14.6767 37.4283C15.6308 37.7939 16.69 37.7681 17.6213 37.3567C18.3869 37.0232 19.0046 36.4254 19.361 35.6732C19.9746 34.3028 19.1279 33.8264 17.4992 34.3725Z" stroke="url(#paint41_linear)" stroke-width="0.35" stroke-miterlimit="10"/>
<path d="M16.9888 34.8455C16.5537 35.0778 16.1357 35.2623 15.8091 35.5071C15.3681 35.8326 15.0597 36.117 14.5575 36.1383C14.3396 36.1354 14.1232 36.1722 13.919 36.2471C12.9018 36.0917 12.988 36.5789 14.5924 37.1997C15.3985 37.5206 16.297 37.5173 17.0976 37.1905C17.7852 36.9181 18.3466 36.4028 18.6749 35.7429C19.2652 34.5004 18.4174 34.0889 16.9888 34.8455Z" stroke="url(#paint42_linear)" stroke-width="0.35" stroke-miterlimit="10"/>
<path d="M14.2048 36.2039C13.1264 35.9617 13.0966 36.3536 14.5149 36.9452C15.1743 37.2237 15.914 37.2439 16.5853 37.0017C17.1952 36.7922 17.7008 36.3587 17.999 35.7895C18.5437 34.693 17.6125 34.2853 16.4771 35.3223C15.4379 36.2766 14.6814 36.3124 14.2048 36.2039Z" stroke="url(#paint43_linear)" stroke-width="0.35" stroke-miterlimit="10"/>
</g>
<g style="mix-blend-mode:overlay">
<path fill-rule="evenodd" clip-rule="evenodd" d="M22.0861 26.8307C17.8883 29.8087 12.1842 31.2521 6.3002 31.5525C0.417104 31.8528 -5.63767 31.0099 -10.5305 29.4232C-12.9769 28.6298 -15.1306 27.6512 -16.8264 26.5382C-18.5231 25.4246 -19.7559 24.1802 -20.3691 22.8576C-20.9804 21.5391 -20.9789 20.1375 -20.1975 18.695C-19.4139 17.2484 -17.8434 15.7564 -15.3078 14.2721C-4.18107 7.7587 2.92788 1.96246 7.91374 -3.44714C3.02432 1.90833 -3.96678 7.64636 -15.0239 14.1075C-17.5203 15.5665 -19.0863 17.0431 -19.8737 18.492C-20.6632 19.9448 -20.6672 21.3655 -20.0485 22.6975C-19.4317 24.0253 -18.199 25.2595 -16.5251 26.354C-14.8502 27.4492 -12.728 28.4084 -10.3232 29.1839C-5.51372 30.7348 0.434531 31.5539 6.21431 31.2518C11.9932 30.9497 17.6118 29.5264 21.7556 26.5847L21.7556 26.5847C25.9155 23.6306 27.9935 18.934 28.6959 13.7048C29.3984 8.47581 28.727 2.70602 27.3803 -2.41016C26.0339 -7.52541 24.0102 -11.9959 22.0012 -14.6244C20.9986 -15.9362 19.9897 -16.8024 19.0597 -17.0478C18.5915 -17.1713 18.1424 -17.1376 17.7281 -16.9234C17.4986 -16.8047 17.2819 -16.6317 17.0794 -16.4028C17.3737 -16.8976 17.7028 -17.2232 18.0554 -17.4026C18.4337 -17.595 18.8467 -17.6229 19.2881 -17.5002C20.1776 -17.253 21.1769 -16.3951 22.1949 -15.0532C24.2269 -12.3744 26.2944 -7.81876 27.679 -2.59961C29.0634 2.61866 29.7629 8.49175 29.0658 13.8037C28.3688 19.1156 26.2767 23.8579 22.0861 26.8307ZM-15.3869 14.1369C-17.9347 15.6284 -19.5323 17.1384 -20.3352 18.6204C-21.1401 20.1065 -21.1433 21.5601 -20.5111 22.9235C-19.8809 24.2828 -18.6219 25.5471 -16.9123 26.6691C-15.2018 27.7917 -13.0345 28.7757 -10.5788 29.5721C-5.66739 31.1649 0.406488 32.0101 6.30818 31.7089C12.2089 31.4077 17.9458 29.9598 22.1767 26.9584C26.4149 23.9519 28.5206 19.1621 29.2211 13.8241C29.9215 8.48622 29.2182 2.59185 27.8303 -2.63976C26.4426 -7.87048 24.3682 -12.4472 22.3196 -15.1478C21.2972 -16.4956 20.2715 -17.3894 19.3301 -17.6511C18.8561 -17.7828 18.4022 -17.7546 17.9844 -17.5421C17.5683 -17.3305 17.1957 -16.9399 16.8749 -16.3609C11.8266 -7.25073 4.93469 2.24108 -15.3869 14.1369ZM21.665 26.4571C17.5542 29.3753 11.9683 30.7942 6.20614 31.0954C0.444926 31.3965 -5.48424 30.5798 -10.2752 29.0349C-12.6706 28.2624 -14.7793 27.3085 -16.4394 26.223C-18.1005 25.1368 -19.3068 23.9225 -19.9065 22.6315C-20.5043 21.3446 -20.502 19.9761 -19.7361 18.5667C-18.968 17.1533 -17.4292 15.6946 -14.9449 14.2427C-4.50876 8.14441 2.31282 2.68705 7.16518 -2.41433C2.4047 2.63272 -4.30602 8.0328 -14.6642 14.0784C-17.1089 15.505 -18.6429 16.9482 -19.4146 18.3637C-20.1885 19.7834 -20.193 21.1712 -19.5877 22.4716C-18.9843 23.7679 -17.7777 24.972 -16.1394 26.0391C-14.5001 27.1068 -12.4229 28.0412 -10.0691 28.7958C-5.36147 30.3049 0.461067 31.0977 6.11883 30.7948C11.7757 30.4919 17.276 29.0931 21.3328 26.2112L21.3328 26.2112C25.4144 23.3092 27.4655 18.7048 28.1712 13.5835C28.8769 8.46238 28.2388 2.81616 26.9343 -2.18522C25.6301 -7.1856 23.6574 -11.5501 21.687 -14.1058C20.7036 -15.3812 19.7108 -16.2194 18.791 -16.4476C18.3279 -16.5625 17.883 -16.5227 17.4714 -16.3062C17.2439 -16.1865 17.0285 -16.0139 16.8267 -15.7867C17.1214 -16.2779 17.4496 -16.6031 17.8001 -16.7843C18.1758 -16.9786 18.5844 -17.0113 19.0198 -16.8964C19.897 -16.6649 20.8788 -15.835 21.8768 -14.5293C23.8689 -11.923 25.8856 -7.47396 27.2289 -2.37031C28.572 2.7324 29.2398 8.48085 28.5408 13.684C27.8418 18.887 25.7777 23.5365 21.665 26.4571ZM6.11046 30.6384C11.7506 30.3364 17.2182 28.9421 21.242 26.0836C25.2768 23.2149 27.314 18.6573 28.0161 13.5622C28.7182 8.46687 28.0837 2.84204 26.7828 -2.14571C25.4816 -7.13445 23.516 -11.4771 21.563 -14.0102C20.5846 -15.2792 19.6194 -16.0807 18.7533 -16.2956C18.3235 -16.4023 17.9185 -16.3644 17.5443 -16.1676C17.1907 -15.9816 16.8587 -15.6505 16.5596 -15.1519C16.7655 -15.3863 16.985 -15.5644 17.2167 -15.688C17.6254 -15.906 18.0658 -15.9511 18.5234 -15.8442C19.4324 -15.632 20.4088 -14.8212 21.3725 -13.5816C23.3037 -11.0979 25.2252 -6.83963 26.487 -1.95498C27.7491 2.93073 28.3537 8.45198 27.6441 13.4641C26.9345 18.4763 24.9091 22.9872 20.9038 25.837L20.9038 25.837C16.9365 28.6589 11.556 30.033 6.02224 30.3366C0.487556 30.6402 -5.20868 29.8736 -9.81397 28.4062C-12.1166 27.6725 -14.1488 26.7628 -15.7523 25.7226C-17.3549 24.6829 -18.5351 23.509 -19.1251 22.2442C-19.7169 20.9752 -19.7116 19.6203 -18.9532 18.2339C-18.2059 16.8678 -16.73 15.475 -14.3855 14.0969L-14.5853 14.2137C-17.018 15.6332 -18.5247 17.0585 -19.2771 18.4387C-20.0273 19.8148 -20.0301 21.1503 -19.4457 22.4055C-18.8595 23.665 -17.6794 24.8491 -16.0539 25.9079C-14.4294 26.966 -12.3657 27.8951 -10.0213 28.6467C-5.33224 30.1499 0.471234 30.9404 6.11046 30.6384ZM-14.3219 14.0596L-14.3013 14.0476C-3.94424 8.00993 2.68194 2.63098 7.36446 -2.3976C2.62915 2.64323 -4.03818 8.03232 -14.3219 14.0596ZM20.813 25.7094C16.8786 28.5079 11.5308 29.8775 6.01367 30.1802C0.497488 30.4829 -5.17971 29.7185 -9.76643 28.257C-12.0598 27.5262 -14.0783 26.6219 -15.6671 25.5912C-17.2568 24.5599 -18.4105 23.4058 -18.9832 22.178C-19.5539 20.9544 -19.5505 19.652 -18.8158 18.309C-18.0789 16.962 -16.6038 15.5701 -14.2224 14.1829L-14.2619 14.1152L-14.2224 14.1829C-3.84814 8.13514 2.79091 2.74491 7.48379 -2.296C2.88413 2.69237 -3.6387 8.02555 -13.9395 14.0182C-16.2814 15.3794 -17.752 16.7552 -18.4927 18.104C-19.2356 19.457 -19.2417 20.7786 -18.6632 22.016C-18.0867 23.2491 -16.9326 24.3929 -15.3656 25.405C-13.7976 26.4178 -11.8103 27.3026 -9.55839 28.0155C-5.05459 29.4413 0.516648 30.182 5.93044 29.8778C11.3433 29.5737 16.607 28.2245 20.4892 25.4625L20.4892 25.4625C24.4143 22.6649 26.4109 18.247 27.1222 13.3435C27.8334 8.44013 27.2608 3.04335 26.0401 -1.72697C24.8196 -6.49615 22.9489 -10.6482 21.0567 -13.0595C20.1124 -14.2629 19.1524 -15.0461 18.2543 -15.2417C17.8021 -15.3401 17.3663 -15.2894 16.9607 -15.0696C16.7282 -14.9436 16.5074 -14.763 16.2999 -14.526C16.602 -15.0269 16.9359 -15.3607 17.2904 -15.5499C17.6626 -15.7484 18.0637 -15.7908 18.4878 -15.6918C19.3423 -15.4923 20.2904 -14.7183 21.2489 -13.4855C23.1623 -11.0247 25.0766 -6.7888 26.3354 -1.91582C27.594 2.95609 28.195 8.45589 27.4891 13.4421C26.7831 18.4282 24.7718 22.8927 20.813 25.7094ZM5.92166 29.7215C11.3179 29.4183 16.549 28.0736 20.3984 25.3349C24.2772 22.5703 26.2598 18.1984 26.9672 13.321C27.6747 8.44348 27.1056 3.06819 25.8884 -1.68815C24.6709 -6.44564 22.8074 -10.5749 20.9335 -12.9629C19.9948 -14.1591 19.0637 -14.9052 18.2209 -15.0887C17.8026 -15.1798 17.4054 -15.1326 17.0353 -14.932C16.6928 -14.7463 16.3686 -14.4267 16.0726 -13.9533C16.2702 -14.1705 16.479 -14.3383 16.6977 -14.4583C17.1009 -14.6795 17.5327 -14.7354 17.9798 -14.6449C18.8683 -14.4651 19.8127 -13.7089 20.7383 -12.5408C22.593 -10.2003 24.4137 -6.15312 25.5929 -1.49842C26.7724 3.15748 27.3125 8.43036 26.5985 13.2249C25.8845 18.0197 23.9149 22.3438 20.068 25.0873L20.0679 25.0873C16.2729 27.7899 11.1276 29.1151 5.83676 29.4205C0.545029 29.726 -4.90045 29.0119 -9.30231 27.6281C-11.5033 26.9362 -13.4455 26.0762 -14.9779 25.0909C-16.5093 24.1062 -17.6373 22.9925 -18.2005 21.7907C-18.7657 20.5846 -18.7591 19.2956 -18.0318 17.9756C-17.3333 16.7077 -15.9724 15.4148 -13.8256 14.1331L-13.8608 14.1536L-13.9001 14.0859L-13.8608 14.1536C-16.1908 15.5079 -17.6341 16.8659 -18.3554 18.1794C-19.0745 19.4888 -19.0786 20.7579 -18.5214 21.9497C-17.9622 23.1457 -16.8348 24.2696 -15.2806 25.2735C-13.7274 26.2767 -11.7537 27.1563 -9.51113 27.8663C-5.02589 29.2861 0.526336 30.0246 5.92166 29.7215ZM-13.2297 13.7845C-3.50195 8.10145 2.73517 3.02504 7.1733 -1.73317C2.68565 3.03166 -3.58677 8.11473 -13.2297 13.7845ZM19.9771 24.9598C16.2147 27.6391 11.1019 28.9597 5.82774 29.2642C0.554445 29.5686 -4.87204 28.8567 -9.25536 27.4787C-11.447 26.7898 -13.3756 25.935 -14.8932 24.9592C-16.4118 23.9827 -17.5129 22.8889 -18.0587 21.7242C-18.6025 20.5639 -18.5979 19.3276 -17.8947 18.0511C-17.1891 16.7704 -15.7779 15.4453 -13.4996 14.1229L-13.5389 14.0552L-13.4996 14.1229L-13.3636 14.0438C-15.5175 15.3127 -16.8784 16.5928 -17.5723 17.8472C-18.2842 19.1341 -18.2916 20.3901 -17.7399 21.5647C-17.1902 22.7349 -16.0885 23.8184 -14.5927 24.7756C-13.096 25.7334 -11.1988 26.5686 -9.04877 27.2395C-4.74883 28.5814 0.571017 29.2692 5.74084 28.9629C10.9097 28.6567 15.9368 27.3563 19.6448 24.7138L19.6449 24.7138C23.4134 22.0208 25.3556 17.7888 26.0724 13.1025C26.7892 8.41624 26.2822 3.26815 25.1451 -1.27161C24.0083 -5.81008 22.2395 -9.74991 20.4252 -12.0166C19.5198 -13.1478 18.5924 -13.8756 17.7156 -14.0379C17.2744 -14.1196 16.8476 -14.0576 16.448 -13.8341C16.197 -13.6938 15.9586 -13.4908 15.7345 -13.2227L15.7351 -13.2237C16.053 -13.7603 16.4029 -14.118 16.773 -14.321C17.1417 -14.5233 17.5356 -14.5751 17.9488 -14.4914C18.781 -14.323 19.696 -13.6041 20.6156 -12.4436C22.4515 -10.1268 24.2649 -6.10293 25.4411 -1.45997C26.6171 3.18178 27.1538 8.43311 26.4437 13.2019C25.7336 17.9705 23.7782 22.249 19.9771 24.9598ZM-13.1576 13.9237C-3.68467 8.39018 2.48622 3.42873 6.91004 -1.2252C2.53216 3.41888 -3.60329 8.37468 -13.1576 13.9237ZM5.73158 28.8066C10.8839 28.5014 15.8785 27.2056 19.5539 24.5864C23.2769 21.9258 25.2048 17.7391 25.9177 13.0788C26.6305 8.41834 26.1267 3.29186 24.9932 -1.23357C23.8594 -5.76028 22.0979 -9.67626 20.303 -11.9187C19.4039 -13.042 18.5068 -13.7322 17.6871 -13.8839C17.2801 -13.9593 16.8906 -13.9023 16.5244 -13.6975C16.165 -13.4965 15.8236 -13.1507 15.5108 -12.6379C15.727 -12.889 15.9555 -13.0815 16.1949 -13.2174C16.5916 -13.4426 17.0139 -13.5101 17.4497 -13.4368C18.3159 -13.2911 19.2269 -12.591 20.113 -11.4958C21.8884 -9.30148 23.6061 -5.46784 24.7008 -1.04484C25.7959 3.37953 26.2699 8.40313 25.5501 12.9807C24.8303 17.5584 22.9151 21.6974 19.225 24.3383L19.2249 24.3384C15.604 26.9215 10.6951 28.1976 5.64814 28.5048C0.600226 28.8119 -4.59405 28.1503 -8.7922 26.8502C-10.8913 26.2001 -12.7436 25.3897 -14.2047 24.4593C-15.6649 23.5295 -16.7404 22.476 -17.2768 21.3373C-17.8152 20.1941 -17.807 18.9709 -17.1108 17.7172C-16.4437 16.5162 -15.1473 15.2906 -13.1051 14.0743L-13.1386 14.0938L-13.1387 14.0938C-15.3657 15.3838 -16.7453 16.6755 -17.4353 17.923C-18.1231 19.1663 -18.1283 20.3695 -17.5982 21.4981C-17.066 22.6311 -15.9912 23.6948 -14.5083 24.6437C-13.0264 25.5921 -11.1428 26.422 -9.00213 27.0901C-4.72072 28.4261 0.580157 29.1118 5.73158 28.8066ZM-12.5804 13.7683C-2.7701 8.02014 3.38389 2.90455 7.74105 -1.89271C3.43375 2.90036 -2.67485 8.0088 -12.5804 13.7683ZM19.1339 24.2109C15.5456 26.7708 10.6691 28.0423 5.63863 28.3485C0.609079 28.6545 -4.56625 27.995 -8.74588 26.7006C-10.8357 26.0534 -12.6743 25.2482 -14.1206 24.3272C-15.5679 23.4056 -16.6164 22.372 -17.1351 21.2705C-17.6518 20.1735 -17.646 19.0034 -16.9739 17.7932C-16.3059 16.5904 -14.9772 15.3444 -12.8379 14.0987C-14.7769 15.2641 -16.0129 16.4372 -16.6542 17.5871C-17.3346 18.8069 -17.343 19.9968 -16.8177 21.1082C-16.2944 22.2152 -15.2448 23.2384 -13.82 24.1407C-12.3943 25.0436 -10.5868 25.8293 -8.53846 26.4587C-4.44189 27.7174 0.626892 28.3534 5.55285 28.0461C10.4779 27.7388 15.2683 26.4879 18.8017 23.965L18.8019 23.9649C22.4136 21.3761 24.3017 17.33 25.0243 12.8608C25.7469 8.39179 25.3057 3.49255 24.2526 -0.8165C23.1997 -5.12409 21.5329 -8.8516 19.7963 -10.9735C18.9295 -12.0327 18.0346 -12.7049 17.179 -12.8339C16.4828 -12.9388 15.8298 -12.6825 15.2566 -12.0202C15.5715 -12.5311 15.9135 -12.8776 16.2722 -13.0812C16.6365 -13.2881 17.0223 -13.3499 17.4237 -13.2824C18.2319 -13.1464 19.112 -12.4842 19.9913 -11.3973C21.7467 -9.22765 23.4571 -5.41843 24.5488 -1.00722C25.6403 3.40261 26.1111 8.40455 25.3954 12.9564C24.6797 17.508 22.779 21.6022 19.1339 24.2109ZM7.13271 -0.997003C2.96791 3.46181 -2.82047 8.20332 -11.7936 13.4892C-3.69294 8.7502 1.76067 4.46327 5.76713 0.427671C6.24195 -0.0506075 6.69648 -0.525384 7.13271 -0.997003ZM5.5431 27.8898C10.4516 27.5836 15.2097 26.3373 18.7107 23.8376C22.2778 21.2808 24.1513 17.279 24.8697 12.8358C25.5882 8.3925 25.15 3.51499 24.1005 -0.779325C23.0505 -5.07509 21.3911 -8.77756 19.6751 -10.8744C18.8156 -11.9246 17.9525 -12.559 17.1557 -12.6791C16.3722 -12.7972 15.627 -12.4205 14.986 -11.3816C15.5632 -12.0555 16.2171 -12.3237 16.9116 -12.2311C17.7566 -12.1184 18.6353 -11.4737 19.4827 -10.4504C21.1805 -8.40036 22.7963 -4.77901 23.8072 -0.587098C24.8184 3.60636 25.2266 8.38071 24.5012 12.7406C23.7757 17.1007 21.915 21.0533 18.3819 23.5896L18.3817 23.5897C14.935 26.0529 10.2627 27.2798 5.45963 27.5885C0.655648 27.8974 -4.28727 27.2883 -8.28158 26.072C-10.2788 25.4638 -12.041 24.7031 -13.4309 23.8278C-14.8197 22.9531 -15.8429 21.96 -16.3524 20.8844C-16.864 19.8043 -16.8545 18.647 -16.1892 17.46C-15.5264 16.2772 -14.215 15.0683 -12.1308 13.8688C-3.85216 9.09791 1.65716 4.79703 5.6824 0.751272C6.31832 0.112108 6.91726 -0.520743 7.48428 -1.14815C6.97516 -0.590639 6.44091 -0.0287771 5.87824 0.537986C1.74494 4.70135 -3.91985 9.12691 -12.42 14.0343L-12.42 14.0344C-14.5436 15.2586 -15.8591 16.4828 -16.5175 17.6633C-17.1735 18.8396 -17.1796 19.9762 -16.6761 21.0413C-16.1706 22.1109 -15.1482 23.1143 -13.7362 24.0084C-12.3253 24.9019 -10.5315 25.6825 -8.49248 26.309C-4.41441 27.562 0.635461 28.196 5.5431 27.8898ZM18.2906 23.4623C14.8763 25.9024 10.2362 27.1246 5.44959 27.4323C0.663879 27.7399 -4.26016 27.1329 -8.23597 25.9222C-10.2238 25.3168 -11.9724 24.5613 -13.3474 23.6953C-14.7235 22.8287 -15.7192 21.8554 -16.2109 20.8174C-16.7005 19.7838 -16.6935 18.68 -16.0526 17.5365C-15.4129 16.3949 -14.1392 15.2102 -12.0864 14.024C-13.9358 15.1298 -15.1158 16.2415 -15.7288 17.3301C-16.3786 18.484 -16.389 19.6084 -15.8908 20.6572C-15.3948 21.7014 -14.3979 22.6645 -13.0447 23.5118C-11.6905 24.3598 -9.97329 25.0957 -8.02711 25.6831C-4.13478 26.8579 0.682385 27.4409 5.36425 27.1314C10.0452 26.8219 14.599 25.6197 17.9582 23.2162L17.9584 23.2161C21.4135 20.7319 23.2475 16.8718 23.9763 12.6198C24.705 8.36801 24.33 3.71757 23.3611 -0.360632C22.3925 -4.43718 20.8279 -7.95209 19.169 -9.92859C18.3409 -10.9153 17.4785 -11.5314 16.6441 -11.6262C15.9473 -11.7054 15.2889 -11.4198 14.7049 -10.7235L14.7294 -10.7627C15.3743 -11.7963 16.1163 -12.1791 16.8909 -12.0759C17.6764 -11.9711 18.5225 -11.3644 19.3622 -10.3505C21.0387 -8.32612 22.647 -4.73045 23.655 -0.550395C24.6626 3.62811 25.0679 8.38067 24.3467 12.7149C23.6256 17.049 21.7795 20.9577 18.2906 23.4623ZM5.79339 0.861705C1.89995 4.775 -3.37394 8.92212 -11.1791 13.4968C-3.43715 8.99247 1.7646 4.91732 5.59836 1.07547C6.34033 0.331936 7.03114 -0.40294 7.67928 -1.1306C7.0874 -0.472792 6.4607 0.190993 5.79339 0.861705ZM5.35392 26.9751C10.0184 26.6668 14.5401 25.4693 17.867 23.089C21.2784 20.6362 23.0976 16.8193 23.8219 12.5933C24.5463 8.36716 24.1741 3.73858 23.2087 -0.324439C22.243 -4.38911 20.686 -7.87762 19.0491 -9.82793C18.2294 -10.8046 17.4004 -11.3827 16.6264 -11.4707C15.8637 -11.5573 15.1276 -11.1696 14.4803 -10.1477C15.0568 -10.8136 15.6992 -11.093 16.3749 -11.0283C17.1989 -10.9495 18.0454 -10.3606 18.8544 -9.40935C20.4749 -7.50409 21.9885 -4.09461 22.9151 -0.133155C23.8421 3.83007 24.1839 8.35612 23.4521 12.4992C22.7202 16.6424 20.9131 20.4092 17.5363 22.841L17.5361 22.8411C14.2644 25.1847 9.82914 26.3625 5.27034 26.6729C0.710638 26.9834 -3.98073 26.4268 -7.77103 25.2941C-9.6662 24.7277 -11.3383 24.0166 -12.6569 23.1962C-13.9743 22.3764 -14.945 21.4436 -15.4275 20.4309C-15.9122 19.4136 -15.901 18.3221 -15.2666 17.2014C-14.6552 16.1214 -13.4672 15.0174 -11.5962 13.9193L-11.6908 13.9737L-11.6909 13.9737C-13.7122 15.1341 -14.9646 16.2922 -15.5924 17.4069C-16.2177 18.5173 -16.2253 19.588 -15.7494 20.59C-15.2713 21.5965 -14.302 22.5398 -12.9616 23.3791C-11.6223 24.2177 -9.91877 24.9486 -7.98187 25.5332C-4.10803 26.7024 0.690288 27.2834 5.35392 26.9751ZM-11.3002 13.7482C-3.43859 9.19241 1.83108 5.07236 5.70919 1.18607C6.23353 0.660628 6.73239 0.139497 7.20873 -0.37781C6.67424 0.208923 6.11072 0.800478 5.51351 1.39765C1.69651 5.2144 -3.49952 9.26297 -11.3002 13.7482ZM17.4448 22.7139C14.2052 25.0344 9.80205 26.2074 5.2597 26.5167C0.718182 26.826 -3.95437 26.2713 -7.7262 25.1441C-9.61209 24.5805 -11.2706 23.8744 -12.5741 23.0633C-13.8788 22.2515 -14.8217 21.3384 -15.2862 20.3636C-15.7484 19.3933 -15.7401 18.3557 -15.1303 17.2786C-14.55 16.2534 -13.4229 15.1895 -11.6291 14.1206C-13.2232 15.1085 -14.2552 16.0987 -14.8067 17.0686C-15.4254 18.1565 -15.4371 19.2155 -14.9656 20.2017C-14.4963 21.1832 -13.5516 22.0862 -12.2696 22.8787C-10.9866 23.6719 -9.35933 24.3583 -7.51502 24.9038C-3.82642 25.9948 0.739393 26.5249 5.17715 26.2129C9.614 25.9009 13.9309 24.7466 17.1154 22.4612L17.1155 22.4611C20.414 20.0818 22.1941 16.4082 22.9291 12.3737C23.6641 8.33938 23.3555 3.93779 22.4707 0.0899217C21.5863 -3.75606 20.1237 -7.05949 18.542 -8.8924C17.7522 -9.80769 16.9218 -10.3687 16.1084 -10.4306C15.4285 -10.4823 14.7795 -10.1847 14.1942 -9.49356L14.2212 -9.53555C14.8728 -10.5511 15.6058 -10.9446 16.36 -10.8725C17.1229 -10.7995 17.9351 -10.2485 18.7352 -9.30791C20.3329 -7.42938 21.8389 -4.04705 22.7626 -0.097494C23.686 3.8503 24.0252 8.35444 23.2979 12.4719C22.5706 16.5893 20.7783 20.3133 17.4448 22.7139ZM5.62422 1.50837C2.13385 4.99851 -2.50268 8.67832 -9.21225 12.7038C-2.56853 8.74837 1.99707 5.13877 5.42921 1.71709C6.00861 1.13945 6.55576 0.567123 7.07521 -0.000681436C6.61387 0.498609 6.13115 1.00147 5.62422 1.50837ZM5.16617 26.0567C9.58666 25.7459 13.8716 24.5964 17.024 22.334C20.2796 19.9856 22.0448 16.3542 22.7751 12.3456C23.5054 8.3368 23.1993 3.95719 22.3181 0.125008C21.4364 -3.70906 19.9816 -6.98451 18.4235 -8.7901C17.6434 -9.69406 16.8482 -10.2172 16.0965 -10.2745C15.3526 -10.3311 14.6241 -9.93236 13.9692 -8.92606L13.9292 -8.86457C14.5178 -9.56132 15.1654 -9.86878 15.8404 -9.83093C16.6433 -9.78592 17.4577 -9.25299 18.2285 -8.37372C19.7717 -6.6133 21.1831 -3.41614 22.0253 0.314274C22.868 4.0467 23.1433 8.32388 22.4051 12.2499C21.6668 16.1761 19.9134 19.7575 16.6931 22.0858L16.6929 22.0859C13.5955 24.3116 9.39699 25.4415 5.08221 25.7545C0.766529 26.0676 -3.67347 25.5641 -7.26 24.5154C-9.05327 23.991 -10.6354 23.3297 -11.8828 22.5643C-13.129 21.7996 -14.0474 20.9271 -14.5033 19.9774C-14.9614 19.023 -14.9488 17.9973 -14.3456 16.9431C-13.7449 15.8932 -12.5607 14.8181 -10.6825 13.7484C-3.24156 9.50071 1.70097 5.6668 5.34463 2.04441C6.15945 1.23435 6.90943 0.434755 7.60797 -0.356681C6.96461 0.363966 6.27831 1.09167 5.53976 1.82797C1.7891 5.56721 -3.30682 9.52586 -10.9671 13.9091L-10.9672 13.9091C-12.8855 15.0053 -14.0742 16.0971 -14.6706 17.1459C-15.2645 18.1904 -15.2732 19.1953 -14.8243 20.1342C-14.3732 21.0777 -13.4565 21.961 -12.1873 22.7455C-10.9192 23.5294 -9.30566 24.2109 -7.47061 24.7536C-3.80048 25.8392 0.746551 26.3674 5.16617 26.0567ZM16.6014 21.9589C13.536 24.1615 9.36933 25.2866 5.07088 25.5984C0.773284 25.9102 -3.64797 25.4084 -7.21606 24.3651C-9.00009 23.8434 -10.5686 23.187 -11.8009 22.4308C-13.0343 21.674 -13.9246 20.8212 -14.3621 19.9097C-14.7974 19.0029 -14.788 18.0316 -14.2097 17.0208C-13.6403 16.0257 -12.5174 14.9895 -10.7148 13.9475C-12.315 14.9086 -13.3436 15.8717 -13.8857 16.8132C-14.4735 17.8343 -14.487 18.8273 -14.0423 19.7504C-13.6 20.6687 -12.7078 21.5113 -11.4973 22.2487C-10.2858 22.9868 -8.74872 23.6235 -7.00657 24.1272C-3.52228 25.1347 0.791574 25.6127 4.98455 25.2997C9.17663 24.9867 13.2559 23.8824 16.2647 21.7178L16.2649 21.7177C19.4085 19.4429 21.1364 15.9553 21.8788 12.138C22.6212 8.32098 22.3798 4.16816 21.5797 0.550837C20.78 -3.06434 19.4197 -6.15591 17.915 -7.84443C17.1632 -8.68799 16.3647 -9.19308 15.5722 -9.22135C14.8893 -9.24571 14.231 -8.9158 13.6296 -8.18521L13.7152 -8.31496C14.3735 -9.31181 15.0977 -9.71576 15.8317 -9.6746C16.5723 -9.63308 17.3506 -9.13769 18.1107 -8.27051C19.6294 -6.53802 21.0331 -3.36973 21.8726 0.348755C22.7117 4.06522 22.9847 8.32036 22.2512 12.221C21.5178 16.1214 19.7794 19.661 16.6014 21.9589ZM5.45502 2.15546C1.97882 5.61135 -2.67215 9.25534 -9.52772 13.2623C-2.73438 9.32797 1.8441 5.75596 5.26063 2.3704C6.09414 1.54444 6.85862 0.729472 7.56934 -0.0771322C6.91328 0.659229 6.21206 1.40284 5.45502 2.15546ZM4.97289 25.1435C9.14869 24.8318 13.1962 23.7324 16.1732 21.5908C19.2751 19.3461 20.9877 15.8996 21.7251 12.1081C22.4626 8.31642 22.2233 4.18574 21.4268 0.584656C20.6298 -3.01858 19.2774 -6.08033 17.7981 -7.74026C17.0578 -8.57092 16.2964 -9.03884 15.5667 -9.06487C14.8425 -9.09071 14.1225 -8.68161 13.4606 -7.69419L13.3747 -7.5662C13.9774 -8.29367 14.6311 -8.62968 15.3052 -8.61983C16.0871 -8.60841 16.8697 -8.13133 17.6025 -7.32355C19.069 -5.70713 20.3782 -2.72131 21.1359 0.778552C21.8941 4.28072 22.1026 8.30922 21.3577 12.0177C20.6128 15.7263 18.9129 19.1208 15.8492 21.3434L15.849 21.3435C12.9261 23.4481 8.96421 24.5278 4.89337 24.8416C0.821638 25.1555 -3.36706 24.7039 -6.74982 23.7384C-8.44119 23.2556 -9.93337 22.6438 -11.1095 21.9332C-12.2844 21.2234 -13.1505 20.4111 -13.5795 19.5243C-14.0109 18.6326 -13.9968 17.6726 -13.4245 16.6847C-12.8902 15.7624 -11.8711 14.8183 -10.2819 13.8755C-12.0752 14.8991 -13.1886 15.9162 -13.75 16.8913C-14.3128 17.869 -14.3228 18.8073 -13.9013 19.6825C-13.4774 20.5625 -12.6136 21.3854 -11.4159 22.115C-10.2193 22.8439 -8.696 23.4758 -6.96308 23.9768C-3.49721 24.979 0.797942 25.4552 4.97289 25.1435ZM-9.37957 13.3574C-2.61518 9.43357 1.95488 5.86662 5.37084 2.48162C6.06549 1.79326 6.71234 1.11251 7.32012 0.437925C6.6568 1.18204 5.94638 1.9333 5.176 2.69393C1.8188 6.00866 -2.67894 9.5033 -9.37957 13.3574ZM15.7574 21.2165C12.8663 23.2982 8.93595 24.3729 4.88133 24.6855C0.827559 24.998 -3.34249 24.5481 -6.70684 23.5878C-8.38902 23.1077 -9.86747 22.5007 -11.0285 21.7992C-12.1907 21.0971 -13.0282 20.3044 -13.4386 19.4561C-13.8466 18.6127 -13.8361 17.7076 -13.289 16.7632C-12.7551 15.8416 -11.7084 14.8802 -10.0325 13.9109C-11.5066 14.799 -12.4585 15.6872 -12.9645 16.5548C-13.5213 17.5094 -13.5362 18.4366 -13.1181 19.297C-12.7024 20.1523 -11.8624 20.9345 -10.7231 21.6168C-9.58254 22.2999 -8.13532 22.8869 -6.49485 23.3487C-3.21392 24.2724 0.849192 24.6978 4.79901 24.383C8.74795 24.0683 12.5916 23.0131 15.4274 20.9683L15.4276 20.9682C18.4118 18.7983 20.0843 15.4972 20.8325 11.8974C21.5805 8.29786 21.4057 4.39391 20.6902 1.00711C19.9751 -2.37723 18.7176 -5.25716 17.2899 -6.8014C16.5762 -7.57337 15.8097 -8.02233 15.0385 -8.01685C14.3615 -8.01204 13.7011 -7.65758 13.0879 -6.90622L13.2071 -7.08141C13.8727 -8.05938 14.5885 -8.47371 15.3029 -8.46327C16.0217 -8.45277 16.7662 -8.01236 17.4866 -7.21835C18.9265 -5.63119 20.2278 -2.67624 20.9829 0.811684C21.7375 4.29731 21.9441 8.30362 21.2042 11.9868C20.4645 15.6698 18.7799 19.0238 15.7574 21.2165ZM5.28601 2.80535C2.03657 6.01367 -2.27432 9.38639 -8.59865 13.0855C-2.33833 9.4572 1.90099 6.15652 5.09227 3.01791C5.93995 2.18422 6.71382 1.36184 7.43211 0.547585C6.76813 1.29222 6.057 2.04411 5.28601 2.80535ZM4.78658 24.2269C8.71932 23.9135 12.5315 22.8634 15.3357 20.8415C18.2792 18.7011 19.9363 15.4398 20.6792 11.8656C21.422 8.29112 21.249 4.40943 20.537 1.03948C19.8245 -2.33293 18.5749 -5.18087 17.1749 -6.69511C16.4748 -7.45238 15.7474 -7.86531 15.0396 -7.86028C14.335 -7.85527 13.6236 -7.43566 12.9543 -6.46715L12.9543 -6.46713L12.8158 -6.2669C13.4359 -7.02814 14.0979 -7.39434 14.7724 -7.41335C15.5337 -7.43479 16.2851 -7.01292 16.9808 -6.27554C18.372 -4.80108 19.5803 -2.02435 20.2543 1.24626C20.9287 4.51948 21.0706 8.29979 20.3179 11.7894C19.5653 15.2792 17.9165 18.4838 15.0052 20.5947C12.2607 22.5852 8.53746 23.6185 4.71134 23.9351C0.884335 24.2517 -3.05354 23.8519 -6.23351 22.9687C-7.8235 22.5271 -9.22632 21.964 -10.3319 21.3075C-11.4362 20.6518 -12.2507 19.8988 -12.6536 19.0741C-13.0591 18.2443 -13.044 17.3492 -12.5031 16.4272C-12.0061 15.5799 -11.0667 14.712 -9.60863 13.8437C-11.27 14.7931 -12.3044 15.7337 -12.8293 16.6337C-13.3607 17.5449 -13.3717 18.4169 -12.9773 19.2285C-12.5803 20.0452 -11.7692 20.8078 -10.6426 21.4825C-9.5172 22.1565 -8.0837 22.7388 -6.45242 23.198C-3.18986 24.1165 0.854647 24.5403 4.78658 24.2269ZM-8.5323 13.228C-2.25597 9.59153 1.99779 6.28094 5.20206 3.12954C6.03811 2.30729 6.80259 1.49599 7.51277 0.692777C6.7492 1.566 5.9228 2.44795 5.00918 3.34293C1.86334 6.42462 -2.31859 9.66265 -8.5323 13.228ZM14.9133 20.4679C12.2003 22.4356 8.50844 23.4638 4.69843 23.7791C0.889296 24.0942 -3.02999 23.6959 -6.19161 22.8178C-7.77243 22.3788 -9.16151 21.8204 -10.2519 21.1729C-11.3435 20.5247 -12.129 19.7913 -12.513 19.0054C-12.8945 18.2246 -12.8834 17.385 -12.3681 16.5064C-11.8649 15.6487 -10.8794 14.7518 -9.30119 13.8453C-10.6763 14.6701 -11.5664 15.4935 -12.0415 16.2972C-12.567 17.186 -12.5829 18.0484 -12.1908 18.847C-11.8013 19.6403 -11.0129 20.3634 -9.94414 20.9918C-8.87418 21.621 -7.51628 22.1595 -5.97712 22.5805C-2.8988 23.4224 0.913813 23.7967 4.61944 23.4802C8.32418 23.1638 11.9299 22.1561 14.5882 20.2268L14.5883 20.2268C17.4214 18.1664 19.0437 15.0539 19.8001 11.6721C20.5565 8.29058 20.4486 4.63445 19.8167 1.47648C19.1853 -1.67868 18.0282 -4.34945 16.675 -5.75151C15.9979 -6.45303 15.2621 -6.84644 14.5113 -6.80792C13.8055 -6.77171 13.1082 -6.35509 12.4528 -5.50195L12.7005 -5.85437L12.6364 -5.89937L12.7005 -5.85438C13.3736 -6.813 14.0813 -7.23724 14.7768 -7.25683C15.4747 -7.27649 16.186 -6.8898 16.8669 -6.16809C18.2291 -4.72436 19.4294 -1.98081 20.1009 1.27785C20.7719 4.5339 20.9121 8.29184 20.1649 11.7564C19.4177 15.2207 17.7845 18.3861 14.9133 20.4679L14.9133 20.4679ZM5.11875 3.45479C2.04477 6.46607 -2.01166 9.62264 -7.9682 13.0831C-2.07477 9.69412 1.91095 6.60984 4.92805 3.66819C6.01989 2.60365 6.98512 1.55756 7.86827 0.522033C7.03667 1.48735 6.13108 2.4631 5.11875 3.45479ZM4.60611 23.3242C8.2948 23.0091 11.8693 22.0066 14.4962 20.1001C17.2899 18.0685 18.8965 14.9944 19.6473 11.638C20.3981 8.28131 20.2915 4.64763 19.6631 1.5072C19.0341 -1.63604 17.8851 -4.27225 16.5624 -5.64277C15.9015 -6.32754 15.2068 -6.68682 14.5193 -6.65155C13.833 -6.61634 13.1291 -6.18661 12.4517 -5.23741L12.4517 -5.23736L12.2787 -4.9953C12.9114 -5.77079 13.5742 -6.15936 14.2399 -6.20932C14.9801 -6.26488 15.7003 -5.8999 16.3588 -5.23406C17.6741 -3.90407 18.7802 -1.33877 19.3694 1.70098C19.9591 4.74375 20.0337 8.27538 19.2742 11.5478C18.5147 14.8203 16.9195 17.8389 14.1655 19.8454L14.1655 19.8454C11.5949 21.7168 8.10787 22.7013 4.52534 23.0196C0.941933 23.338 -2.74492 22.9905 -5.72138 22.1908C-7.2096 21.7909 -8.52256 21.2774 -9.55697 20.6758C-10.5901 20.075 -11.3525 19.3822 -11.7288 18.6204C-12.1078 17.8533 -12.0912 17.0238 -11.5813 16.1683C-11.1223 15.398 -10.2649 14.6083 -8.94234 13.8165C-10.4669 14.6898 -11.4195 15.5528 -11.9067 16.3768C-12.4065 17.2223 -12.4181 18.0288 -12.0503 18.778C-11.6799 19.5324 -10.9208 20.2359 -9.86478 20.8569C-8.80998 21.4771 -7.46582 22.011 -5.93582 22.4295C-2.87582 23.2664 0.918276 23.6392 4.60611 23.3242ZM-7.59146 13.0464C-1.85202 9.7196 2.06074 6.68248 5.03735 3.78029C5.88346 2.95534 6.65379 2.14142 7.36878 1.33508C6.60057 2.21103 5.76894 3.09483 4.84501 3.99168C1.92608 6.82505 -1.9159 9.79025 -7.59146 13.0464ZM14.0733 19.7189C11.5339 21.5675 8.07803 22.5468 4.51148 22.8637C0.9458 23.1804 -2.72259 22.8344 -5.68075 22.0396C-7.15984 21.6422 -8.45904 21.1332 -9.47826 20.5405C-10.4988 19.947 -11.2315 19.2737 -11.5884 18.5511C-11.9428 17.8338 -11.9308 17.0605 -11.4468 16.2484C-10.9805 15.4659 -10.0743 14.6455 -8.62848 13.8139C-9.87234 14.5637 -10.6826 15.3105 -11.1204 16.0387C-11.6148 16.8611 -11.6324 17.6579 -11.2668 18.3939C-10.9039 19.1243 -10.1677 19.7871 -9.17035 20.3605C-8.17165 20.9346 -6.90382 21.4234 -5.46671 21.8023C-2.59246 22.5602 0.968306 22.8814 4.42909 22.5621C7.88901 22.2428 11.2569 21.2826 13.7391 19.4707C16.4155 17.5175 17.9849 14.5931 18.7488 11.4301C19.5127 8.26724 19.4725 4.86072 18.9258 1.93351C18.3796 -0.990433 17.3252 -3.45014 16.048 -4.7086C15.4081 -5.33904 14.7038 -5.67589 13.9742 -5.60397C13.2545 -5.53302 12.5321 -5.0663 11.8405 -4.14116L12.1347 -4.54646L12.1932 -4.62715L12.1932 -4.62718C12.8746 -5.56712 13.5746 -6.00238 14.2516 -6.05319C14.9288 -6.10401 15.6066 -5.77192 16.2475 -5.12396C17.5308 -3.82634 18.6288 -1.29712 19.2157 1.73077C19.8019 4.75562 19.8754 8.26473 19.1217 11.5124C18.368 14.7598 16.7885 17.7406 14.0733 19.7189ZM4.95406 4.10403C2.0974 6.87696 -1.63695 9.77244 -7.09158 12.9387C-1.70021 9.84411 1.96402 7.02179 4.76408 4.3182C5.98044 3.14375 7.03405 1.99142 7.99571 0.848234C7.08546 1.91992 6.08919 3.00218 4.95406 4.10403ZM4.41471 22.4062C7.85872 22.0884 11.1956 21.1335 13.6468 19.3443L13.6468 19.3443C16.2852 17.4188 17.8388 14.5314 18.5966 11.3933C19.3545 8.25506 19.3152 4.87114 18.7718 1.96226C18.2279 -0.949872 17.1816 -3.37187 15.9381 -4.59707C15.3176 -5.20844 14.6566 -5.5139 13.9896 -5.44815C13.3219 -5.38233 12.6257 -4.94238 11.9403 -4.01289L11.8773 -4.05936L11.9403 -4.01288L11.7914 -3.81099L11.7908 -3.81025C11.5074 -3.42593 11.2245 -3.04242 10.9396 -2.65924C11.0678 -2.82985 11.196 -3.00064 11.3242 -3.17167L11.3243 -3.17169L11.5665 -3.49459C12.2701 -4.43216 12.9966 -4.91331 13.714 -5.00174C14.433 -5.09035 15.122 -4.78206 15.7436 -4.1872C16.9836 -3.00069 17.987 -0.646643 18.4907 2.16161C18.9951 4.97338 19.0013 8.25522 18.2336 11.3093C17.4658 14.3635 15.9225 17.1949 13.3238 19.0964L13.3238 19.0964C10.9275 20.8487 7.67709 21.7844 4.33841 22.1044C0.998877 22.4246 -2.43675 22.1296 -5.20947 21.4135C-6.59582 21.0554 -7.8188 20.5915 -8.782 20.0448C-9.74385 19.4989 -10.4541 18.8664 -10.8037 18.1674C-11.1561 17.4628 -11.1378 16.6988 -10.6588 15.9097C-10.2318 15.2062 -9.43987 14.4839 -8.22318 13.758C-9.64285 14.566 -10.5307 15.3618 -10.9862 16.1193C-11.4546 16.8984 -11.4671 17.6386 -11.1266 18.3242C-10.7833 19.0153 -10.0771 19.6586 -9.09231 20.2247C-8.10885 20.7901 -6.8548 21.2744 -5.42679 21.6509C-2.5708 22.404 0.971563 22.7239 4.41471 22.4062ZM-6.96567 13.0469C-1.59111 9.95775 2.07044 7.13668 4.87284 4.43084C6.20584 3.14378 7.34406 1.88312 8.37932 0.632936C7.29198 1.95603 6.10047 3.28608 4.68501 4.6452C1.93812 7.28274 -1.6539 10.0312 -6.96567 13.0469ZM13.2314 18.97C10.866 20.6997 7.64632 21.63 4.32347 21.9486C1.00148 22.2671 -2.41581 21.9733 -5.17031 21.2619C-6.54759 20.9061 -7.75679 20.4466 -8.70472 19.9086C-9.65401 19.3699 -10.3339 18.7567 -10.6636 18.0973C-10.9906 17.4436 -10.9776 16.7367 -10.5249 15.9909C-10.0948 15.2822 -9.26633 14.5372 -7.94983 13.7793C-9.06529 14.4551 -9.79717 15.1263 -10.1979 15.78C-10.6614 16.536 -10.6806 17.2674 -10.3414 17.9408C-10.0051 18.6085 -9.32101 19.211 -8.39491 19.7294C-7.46741 20.2486 -6.28956 20.6878 -4.95438 21.025C-2.28397 21.6993 1.02532 21.968 4.24182 21.6469C7.45745 21.3259 10.5881 20.4146 12.8953 18.722C17.9376 15.0254 18.9659 7.77838 18.0424 2.39298C17.5807 -0.299425 16.628 -2.54792 15.4255 -3.6626C14.822 -4.22192 14.1487 -4.50159 13.4408 -4.39638C12.7351 -4.29151 12.0142 -3.80698 11.3075 -2.88052L10.9849 -2.45784L10.9256 -2.37999C11.0995 -2.6112 11.2732 -2.84266 11.4471 -3.07447L11.448 -3.07565L11.6918 -3.4006L11.6292 -3.4476L11.6918 -3.40061C12.3817 -4.32007 13.0743 -4.76514 13.7332 -4.84634C14.3905 -4.92734 15.0349 -4.64864 15.6354 -4.07408C16.8396 -2.92175 17.8349 -0.607261 18.3366 2.18926C18.8376 4.98226 18.8433 8.24143 18.0817 11.2711C17.3201 14.3006 15.7928 17.0958 13.2314 18.97ZM4.79346 4.75814C2.17457 7.27278 -1.20664 9.88488 -6.09803 12.729C-1.27232 9.95422 2.03872 7.41456 4.6012 4.96906C5.74426 3.87819 6.73867 2.8058 7.65252 1.73894C6.7919 2.73488 5.85549 3.73838 4.79346 4.75814ZM4.22626 21.4911C7.42617 21.1717 10.5262 20.2658 12.8027 18.5957L12.8027 18.5957C17.7745 14.9508 18.8073 7.78041 17.8881 2.41945C17.4284 -0.261325 16.4837 -2.46823 15.319 -3.54777C14.7388 -4.08556 14.1111 -4.3377 13.4638 -4.2415C12.8142 -4.14496 12.1256 -3.69487 11.432 -2.78555L11.4319 -2.78552L11.1081 -2.36114L11.1081 -2.36112C10.6857 -1.8074 10.2653 -1.25623 9.83758 -0.705939C10.1053 -1.04843 10.3716 -1.39188 10.6391 -1.73676L10.64 -1.73798L10.64 -1.738C10.7764 -1.91382 10.913 -2.09002 11.0503 -2.26665L11.1121 -2.21861L11.0503 -2.26666C11.762 -3.18221 12.4784 -3.6702 13.1729 -3.79154C13.8703 -3.9134 14.5282 -3.66256 15.1134 -3.13875C16.2785 -2.09587 17.179 0.0473589 17.597 2.62398C18.4334 7.77873 17.3515 14.7563 12.4684 18.3458C10.2497 19.9793 7.23821 20.8665 4.14519 21.1887C1.05132 21.511 -2.13189 21.2688 -4.70013 20.6366C-5.98423 20.3206 -7.11697 19.9064 -8.00878 19.415C-8.89914 18.9244 -9.55715 18.3523 -9.88007 17.7165C-10.206 17.0746 -10.1859 16.3764 -9.73783 15.6542C-9.33112 14.9986 -8.57283 14.324 -7.40482 13.6444C-8.77682 14.406 -9.63028 15.1536 -10.0644 15.8618C-10.5014 16.5746 -10.5148 17.2484 -10.2015 17.8704C-9.88537 18.4981 -9.23202 19.0813 -8.31843 19.5928C-7.40625 20.1034 -6.24219 20.5383 -4.91605 20.8731C-2.26381 21.5429 1.02722 21.8105 4.22626 21.4911ZM-6.64476 13.2205C-1.46872 10.3013 2.02712 7.64206 4.70931 5.08233C6.20029 3.65942 7.43933 2.26769 8.57509 0.8805C7.3814 2.34529 6.09361 3.80597 4.51854 5.30017C1.89409 7.78985 -1.52959 10.3739 -6.64476 13.2205ZM12.3756 18.2197C10.1874 19.8307 7.20634 20.7124 4.12897 21.033C1.05245 21.3534 -2.11259 21.1123 -4.66271 20.4846C-5.9378 20.1708 -7.05676 19.7609 -7.93322 19.2779C-8.81114 18.7941 -9.43795 18.2412 -9.74046 17.6456C-10.0399 17.0559 -10.0261 16.4158 -9.60478 15.7367C-9.2466 15.1594 -8.59315 14.5535 -7.58439 13.9341C-8.39956 14.4695 -8.95344 14.9994 -9.2772 15.5162C-9.70963 16.2065 -9.73052 16.873 -9.41765 17.4846C-9.10793 18.09 -8.47586 18.6326 -7.62106 19.0963C-6.76475 19.5608 -5.6769 19.9505 -4.44365 20.2459C-1.97708 20.8367 1.08076 21.0524 4.05313 20.7285C7.02465 20.4047 9.91844 19.5408 12.051 17.9653C16.7768 14.4796 17.9111 7.77011 17.1603 2.84532C16.7852 0.384202 15.9362 -1.65401 14.8079 -2.62516C14.2406 -3.11346 13.5981 -3.33531 12.9115 -3.19687C12.2283 -3.05914 11.5165 -2.56772 10.8003 -1.6631C10.6391 -1.45958 10.4789 -1.25674 10.3192 -1.05447L10.319 -1.05421L10.3189 -1.05412L10.3189 -1.05402L10.318 -1.05289L10.3176 -1.05244L10.3171 -1.05183L10.3165 -1.05103C9.90389 -0.528575 9.49431 -0.00995788 9.0786 0.506619C9.65049 -0.206506 10.2045 -0.920936 10.7627 -1.6407L10.7628 -1.64075L10.7628 -1.64077C10.8995 -1.81703 11.0364 -1.99361 11.1739 -2.17057C11.873 -3.06996 12.5586 -3.52527 13.1998 -3.6373C13.838 -3.74881 14.4492 -3.52308 15.009 -3.02208C16.1337 -2.01537 17.0263 0.0839137 17.4425 2.64906C18.2747 7.77783 17.19 14.6808 12.3756 18.2196L12.3756 18.2197ZM4.62629 5.41376C2.5138 7.41778 -0.112328 9.48061 -3.71087 11.6892C-0.182605 9.54917 2.37883 7.55402 4.43973 5.61422C5.86495 4.27274 7.05129 2.95734 8.15325 1.6373C7.1074 2.88637 5.97114 4.13798 4.62629 5.41376ZM4.03617 20.5729C6.99214 20.2508 9.85575 19.3924 11.958 17.8394L11.958 17.8393C16.617 14.403 17.7521 7.76607 17.0056 2.86892C16.6321 0.419073 15.7908 -1.57255 14.7058 -2.50648C14.1665 -2.97073 13.5716 -3.17023 12.9424 -3.04338C12.3097 -2.91583 11.6272 -2.45532 10.9231 -1.56591L10.8617 -1.61451L10.9231 -1.56591C10.7618 -1.36222 10.6014 -1.15913 10.4414 -0.95655C8.6683 1.28869 6.94408 3.47205 4.54705 5.72823C1.9862 8.1386 -1.341 10.6308 -6.3163 13.3754C3.04842 8.2859 6.39346 4.12534 10.0016 -0.362523L10.0022 -0.363193C10.1838 -0.589135 10.3662 -0.815903 10.5499 -1.04366C11.2706 -1.93674 11.9776 -2.43103 12.6494 -2.58459C13.325 -2.73904 13.952 -2.5459 14.5014 -2.09279C15.0487 -1.64143 15.5205 -0.931578 15.8966 -0.0450991C16.2731 0.84225 16.5559 1.91133 16.7224 3.08671C17.3872 7.78155 16.2004 14.2214 11.6314 17.5995C9.58615 19.1127 6.81063 19.9504 3.96101 20.2739C1.11054 20.5975 -1.82174 20.4074 -4.18646 19.8585C-5.36878 19.5841 -6.41165 19.2194 -7.23233 18.7827C-8.05142 18.3468 -8.65747 17.8348 -8.95384 17.2614C-9.25353 16.6815 -9.23154 16.0483 -8.81433 15.3921C-8.4228 14.7763 -7.68391 14.1404 -6.53905 13.4978L-6.62769 13.5463L-6.62778 13.5464C-7.92915 14.2548 -8.73594 14.9471 -9.14451 15.5993C-9.54997 16.2465 -9.56412 16.8545 -9.27826 17.4133C-8.98924 17.9782 -8.38882 18.5017 -7.5464 18.9587C-6.70551 19.4148 -5.63146 19.8004 -4.40718 20.0936C-1.95869 20.6801 1.08105 20.8949 4.03617 20.5729ZM11.5383 17.4736C9.52312 18.9646 6.77756 19.7966 3.94335 20.1183C1.10999 20.4399 -1.80432 20.2507 -4.15106 19.706C-5.32446 19.4336 -6.35354 19.0729 -7.15878 18.6445C-7.96561 18.2151 -8.53947 17.7221 -8.81474 17.1895C-9.08671 16.6633 -9.07209 16.0894 -8.6822 15.4762C-8.32556 14.9152 -7.65438 14.3216 -6.59925 13.7123C-7.45634 14.2386 -8.02957 14.758 -8.35481 15.2626C-8.75642 15.8856 -8.7793 16.4863 -8.49261 17.0351C-8.2094 17.5773 -7.62928 18.0591 -6.84585 18.4675C-6.06075 18.8767 -5.06288 19.2166 -3.93153 19.4701C-1.66875 19.9772 1.13775 20.1408 3.86614 19.8162C6.59369 19.4917 9.25077 18.6782 11.2088 17.2243C15.6209 13.9485 16.8612 7.77908 16.2827 3.31622C16.1379 2.19895 15.8788 1.18551 15.5253 0.348282C15.1721 -0.488062 14.7224 -1.1536 14.1933 -1.56885C13.6616 -1.98612 13.05 -2.14981 12.3854 -1.97905C11.7248 -1.80933 11.0223 -1.31195 10.2969 -0.430342C10.0901 -0.179094 9.88542 0.0707273 9.68174 0.319356L9.68076 0.320563C6.35902 4.37543 3.29688 8.1134 -4.5582 12.5713C3.56931 7.88775 6.73518 3.95011 10.1245 -0.265432L10.1245 -0.265496L10.1246 -0.265559L10.1246 -0.265623L10.1247 -0.265687L10.1247 -0.265751L10.1248 -0.265815L10.1248 -0.265878L10.127 -0.268532C10.3077 -0.493291 10.489 -0.718836 10.6718 -0.94533L10.6109 -0.994495L10.6718 -0.945334C11.3809 -1.82413 12.0601 -2.28928 12.6843 -2.43195C13.3045 -2.57373 13.883 -2.39988 14.4018 -1.97199C14.9228 -1.54236 15.3819 -0.857226 15.7525 0.0160611C16.1227 0.888478 16.4024 1.94393 16.5673 3.10866C17.228 7.77419 16.0423 14.1436 11.5383 17.4735L11.5383 17.4736ZM3.84764 19.6607C6.55989 19.338 9.18725 18.5303 11.1155 17.0986L11.1621 17.1614L11.1155 17.0986C15.4648 13.8694 16.7019 7.7681 16.1274 3.33635C15.984 2.22997 15.728 1.23077 15.381 0.409197C15.0337 -0.413257 14.5974 -1.05267 14.0966 -1.44568C13.5984 -1.83668 13.0361 -1.98458 12.4243 -1.82739C11.8085 -1.66917 11.1322 -1.19908 10.4178 -0.330841C10.2115 -0.0802579 10.0074 0.168946 9.80415 0.417008L9.80247 0.419054C6.48962 4.463 3.42575 8.20303 -4.38015 12.6502C3.16863 8.41752 6.12775 4.87137 9.3782 0.976111L9.37901 0.975138C9.59834 0.712293 9.81901 0.447857 10.0425 0.181513C10.772 -0.688545 11.4695 -1.18878 12.1184 -1.37422C12.7714 -1.56082 13.3673 -1.42624 13.8813 -1.04441C14.3923 -0.66476 14.82 -0.0429175 15.1504 0.743864C15.4812 1.53154 15.7168 2.48986 15.8402 3.54944C16.3335 7.78191 15.0417 13.681 10.7866 16.849C8.91616 18.2431 6.37761 19.032 3.77212 19.3575C1.16578 19.683 -1.51508 19.5457 -3.676 19.0806C-4.7564 18.8481 -5.70929 18.5331 -6.4588 18.1515C-7.20655 17.7708 -7.76074 17.3192 -8.03069 16.8085C-8.30434 16.2908 -8.28034 15.7228 -7.89404 15.1332C-7.5795 14.6532 -7.02493 14.1581 -6.19571 13.6556C-7.22462 14.2417 -7.87751 14.8111 -8.22321 15.3474C-8.59722 15.9276 -8.61204 16.4683 -8.35382 16.9626C-8.09213 17.4636 -7.54476 17.9266 -6.77347 18.3287C-6.00386 18.7298 -5.01978 19.0658 -3.8973 19.3173C-1.65242 19.8204 1.13622 19.9833 3.84764 19.6607ZM10.6931 16.7235C8.85218 18.0955 6.34306 18.8786 3.75271 19.2021C1.1632 19.5255 -1.49995 19.3888 -3.64306 18.9275C-4.71466 18.6969 -5.65378 18.3857 -6.38776 18.012C-7.12351 17.6374 -7.64429 17.2044 -7.89227 16.7353C-8.13655 16.2732 -8.12145 15.766 -7.76308 15.2191C-7.43913 14.7246 -6.83467 14.1987 -5.88789 13.656C-6.63613 14.1147 -7.14128 14.5658 -7.43284 15.003C-7.80383 15.5593 -7.82906 16.0948 -7.56844 16.5816C-7.31175 17.061 -6.78351 17.4825 -6.07151 17.8357C-5.35764 18.1899 -4.44976 18.4801 -3.42033 18.6918C-1.36135 19.1152 1.19385 19.2264 3.67822 18.9001C6.16177 18.574 8.58201 17.8096 10.3653 16.4753C14.4627 13.4105 15.8103 7.78178 15.4048 3.78073C15.3033 2.77909 15.0917 1.87617 14.784 1.13835C14.4766 0.401414 14.0709 -0.176458 13.5775 -0.5201C13.0809 -0.865985 12.5003 -0.970924 11.8581 -0.768381C11.2199 -0.567062 10.526 -0.0638412 9.79053 0.794694C9.54932 1.07625 9.31183 1.35527 9.07613 1.63218L9.07512 1.63338C7.55937 3.4142 6.11782 5.10785 4.23853 6.82714L3.82557 7.15302C6.12352 5.12077 7.77142 3.14598 9.49886 1.07589L9.4996 1.07499L9.50223 1.07185C9.72054 0.810239 9.94012 0.547101 10.1625 0.282132L10.1625 0.282109C10.8815 -0.575444 11.5543 -1.05018 12.1614 -1.22367C12.7645 -1.396 13.3104 -1.27347 13.7879 -0.918722C14.2683 -0.561799 14.6818 0.0323816 15.006 0.804488C15.3299 1.5757 15.5625 2.51913 15.6847 3.56757C16.1741 7.76718 14.8877 13.6005 10.6931 16.7234L10.6931 16.7235ZM-3.88201 12.5484C-2.37427 11.7034 -1.06061 10.8872 0.103864 10.0899L0.490238 9.78503C-0.775574 10.6802 -2.21438 11.5974 -3.88201 12.5484ZM-3.55679 12.5449C-2.75274 12.0895 -2.00451 11.6423 -1.30506 11.2018L-1.43535 11.3046C-2.09545 11.7114 -2.80047 12.1244 -3.55679 12.5449ZM8.90112 2.37617L8.90105 2.37626L8.90092 2.37641C8.13374 3.25961 7.38805 4.11806 6.59548 4.9672L6.74238 4.85128C7.33289 4.21437 7.90645 3.56799 8.49521 2.90449L8.49528 2.90441L8.49548 2.90418C8.75388 2.61298 9.0152 2.31848 9.28217 2.02003C10.0285 1.18562 10.7144 0.67721 11.3308 0.44492C11.9501 0.211537 12.4996 0.257221 12.9613 0.530654C13.4198 0.802187 13.7819 1.2924 14.0435 1.9298C14.3054 2.56795 14.4692 3.35995 14.527 4.24536C14.7582 7.78221 13.3012 12.8678 9.51967 15.7267L9.51962 15.7267C7.91116 16.9409 5.72811 17.6561 3.48896 17.9839C1.24899 18.3118 -1.05447 18.2532 -2.90939 17.9137C-3.83678 17.744 -4.65457 17.5036 -5.29722 17.2046C-5.93773 16.9066 -6.41437 16.5457 -6.64491 16.1289C-6.76101 15.919 -6.81449 15.6952 -6.79433 15.4606C-6.77422 15.2266 -6.68127 14.9869 -6.5125 14.7439C-6.26247 14.3838 -5.84289 14.0117 -5.23228 13.6317C-6.03836 14.0963 -6.55842 14.5436 -6.84296 14.9622C-7.16982 15.4431 -7.18519 15.8833 -6.9689 16.2811C-6.7484 16.6867 -6.28091 17.0596 -5.61625 17.3796C-4.95358 17.6986 -4.10446 17.9604 -3.13468 18.1494C-1.19526 18.5272 1.21673 18.6117 3.56252 18.2867C5.90914 17.9616 8.1821 17.2277 9.84921 15.975L9.84922 15.975C13.7338 13.0574 15.1261 7.76026 14.8107 4.02706C14.732 3.09504 14.547 2.26393 14.2699 1.59421C13.9924 0.923643 13.625 0.420827 13.1855 0.1364C12.7492 -0.145866 12.2347 -0.217846 11.6467 -0.0146553C11.0553 0.18974 10.3871 0.673745 9.65578 1.50954L9.59686 1.45799L9.65578 1.50954C9.40075 1.80099 9.1503 2.08932 8.90209 2.37506L8.90122 2.37606L8.90112 2.37617ZM8.78281 2.27362C7.77313 3.43601 6.80182 4.55422 5.71236 5.6641L5.52585 5.81128C6.86746 4.46865 8.00907 3.12741 9.19465 1.7345L9.19476 1.73438L9.19525 1.73381C9.43094 1.45691 9.66836 1.17796 9.90944 0.896558C10.635 0.0496368 11.3057 -0.429962 11.9052 -0.619056C12.5009 -0.80693 13.0311 -0.709884 13.488 -0.391621C13.9482 -0.0711154 14.3386 0.477325 14.6395 1.19863C14.94 1.91905 15.1487 2.80629 15.249 3.79651C15.651 7.76286 14.3109 13.3285 10.2715 16.35L10.2715 16.35C8.51747 17.6623 6.12637 18.4207 3.65784 18.7449C1.19012 19.069 -1.34752 18.9582 -3.3888 18.5384C-4.4095 18.3286 -5.30361 18.0419 -6.00192 17.6955C-6.70209 17.3481 -7.19621 16.9451 -7.4304 16.5077C-7.66068 16.0776 -7.64531 15.6038 -7.30257 15.0898C-6.99454 14.6279 -6.42236 14.1352 -5.52784 13.625C-6.22464 14.0513 -6.6973 14.4694 -6.97245 14.8742C-7.32791 15.3971 -7.35426 15.9001 -7.10646 16.3559C-6.86286 16.8039 -6.36044 17.1951 -5.68417 17.5207C-5.0059 17.8472 -4.14305 18.1124 -3.16463 18.3031C-1.20764 18.6843 1.22175 18.7691 3.58401 18.4418C5.94545 18.1146 8.24722 17.3746 9.94325 16.1002C13.8831 13.141 15.2852 7.78361 14.9668 4.01388C14.887 3.07016 14.6993 2.22251 14.4146 1.53433C14.1301 0.847001 13.7463 0.312788 13.2705 0.00494223C12.7914 -0.305061 12.2263 -0.380596 11.5956 -0.162643C10.9684 0.0541002 10.2787 0.55989 9.53795 1.40643C9.28235 1.69853 9.03142 1.98741 8.78281 2.27362ZM8.22799 3.51522C8.05165 3.70961 7.87691 3.90224 7.70287 4.09333L7.50378 4.25044C7.87286 3.84175 8.23973 3.4283 8.61253 3.00817C8.8709 2.71701 9.13211 2.42264 9.39887 2.12442L9.34052 2.07222L9.39888 2.12442C10.1364 1.2999 10.8023 0.811412 11.386 0.591436C11.9669 0.372553 12.4659 0.419231 12.8815 0.665378C13.3004 0.91343 13.6446 1.37002 13.8986 1.98924C14.1524 2.6077 14.3137 3.38213 14.3708 4.25557C14.5994 7.75405 13.1545 12.7823 9.42529 15.6018C7.84541 16.7944 5.6908 17.5033 3.46628 17.829C1.24256 18.1545 -1.04369 18.096 -2.8812 17.7597C-3.80004 17.5915 -4.60414 17.3543 -5.23117 17.0626C-5.86034 16.7699 -6.30113 16.4269 -6.5079 16.0531C-6.61045 15.8677 -6.65558 15.6747 -6.63833 15.474C-6.62104 15.2728 -6.54056 15.0588 -6.38389 14.8332C-6.10885 14.4371 -5.60349 14.0117 -4.8173 13.568C-5.40494 13.9265 -5.80879 14.2766 -6.04946 14.6146C-6.21062 14.8409 -6.30026 15.064 -6.32053 15.282C-6.34086 15.5006 -6.29087 15.7088 -6.18131 15.9031C-5.96401 16.2886 -5.51322 16.6191 -4.90861 16.8894C-4.30169 17.1607 -3.52898 17.3761 -2.65262 17.5248C-0.899702 17.8222 1.2781 17.8543 3.39623 17.5253C5.51355 17.1965 7.57848 16.5056 9.10008 15.3512C12.7259 12.6018 14.2386 7.78876 14.0948 4.48288C14.0588 3.65531 13.919 2.91823 13.6799 2.32927C13.441 1.74091 13.1003 1.29378 12.6587 1.05793C12.2143 0.820601 11.6804 0.803935 11.0724 1.0519C10.4666 1.29898 9.78434 1.80947 9.03207 2.63139L9.03206 2.6314C8.7589 2.92997 8.49229 3.22388 8.22923 3.51386L8.22915 3.51395L8.22889 3.51423L8.22799 3.51522ZM9.14758 2.73709C8.91063 2.99609 8.67853 3.25166 8.44933 3.50427L8.77841 3.24459L8.83554 3.29811L8.77842 3.24457C9.53659 2.43535 10.2151 1.92279 10.8102 1.66089C11.4066 1.39841 11.9244 1.38588 12.351 1.5864C12.7757 1.78606 13.0949 2.18989 13.3108 2.72909C13.5268 3.26864 13.6423 3.95052 13.6562 4.71994C13.7114 7.79353 12.1425 12.3335 8.67539 14.9777C7.24142 16.0719 5.29526 16.7379 3.30028 17.0674C1.3045 17.397 -0.747286 17.3911 -2.398 17.1355C-3.22326 17.0077 -3.95084 16.8171 -4.52205 16.5734C-5.09074 16.3307 -5.5158 16.0305 -5.72006 15.6762C-5.82321 15.4973 -5.86981 15.3049 -5.84939 15.1021C-5.82904 14.9001 -5.74277 14.6934 -5.58935 14.4839C-5.37875 14.1963 -5.03802 13.8985 -4.55224 13.5929C-5.23138 13.984 -5.67433 14.3578 -5.92192 14.7054C-6.0709 14.9146 -6.14747 15.1119 -6.16463 15.2965C-6.18173 15.4804 -6.14036 15.6569 -6.04491 15.8262C-5.85219 16.1681 -5.43832 16.4811 -4.84471 16.7464C-4.25342 17.0108 -3.49435 17.2232 -2.62642 17.3704C-0.890748 17.6649 1.27008 17.6971 3.37219 17.3706C5.47511 17.044 7.51202 16.3595 9.00544 15.2265L9.00545 15.2265C12.5821 12.5143 14.0805 7.75551 13.9384 4.48969C13.9029 3.67434 13.7653 2.956 13.5348 2.38816C13.304 1.81972 12.9831 1.40866 12.5849 1.19604C12.1896 0.984888 11.7056 0.962792 11.1316 1.19688C10.5554 1.43185 9.89157 1.92423 9.14758 2.73709ZM-2.40038 12.0661L-2.43191 12.091C-2.6227 12.2002 -2.81711 12.31 -3.01529 12.4203C-2.80635 12.3016 -2.60143 12.1836 -2.40038 12.0661ZM3.27477 16.9129C5.25559 16.5858 7.17419 15.9262 8.58043 14.8533L8.58044 14.8532C12.0018 12.2439 13.5541 7.75473 13.4996 4.72275C13.486 3.96578 13.3723 3.30401 13.1654 2.78729C12.9584 2.27023 12.6611 1.90521 12.2844 1.7281C11.9094 1.55184 11.4404 1.55462 10.8733 1.8042C10.3049 2.05436 9.64316 2.55062 8.89267 3.35164L8.89265 3.35166C8.61359 3.64933 8.34193 3.94167 8.07446 4.22951C5.34646 7.1652 3.05341 9.63283 -2.22811 12.5212C2.85621 9.8147 5.03732 7.52416 7.72737 4.69914C7.99004 4.42329 8.25756 4.14235 8.5331 3.85543C9.29761 3.05923 9.9728 2.54483 10.5575 2.26836C11.1426 1.99171 11.6442 1.95031 12.0528 2.11358C12.4612 2.27674 12.7593 2.63736 12.9525 3.12773C13.1456 3.61797 13.2369 4.24472 13.2286 4.95583C13.1954 7.79658 11.5703 12.0627 8.26217 14.6015C6.91371 15.6372 5.08463 16.2796 3.21071 16.6105C1.336 16.9415 -0.590602 16.962 -2.1395 16.7483C-2.91383 16.6414 -3.59634 16.4757 -4.13181 16.2595C-4.66446 16.0443 -5.06377 15.7744 -5.25478 15.4512C-5.35145 15.2876 -5.39451 15.1106 -5.37372 14.9235C-5.35304 14.7374 -5.26985 14.5472 -5.12391 14.3544C-4.92101 14.0864 -4.5925 13.8079 -4.12397 13.5211C-4.79062 13.8942 -5.22314 14.2488 -5.46302 14.5764C-5.60417 14.7692 -5.67669 14.9499 -5.6936 15.1178C-5.71043 15.2849 -5.67277 15.4448 -5.58441 15.598C-5.40565 15.9081 -5.01872 16.1912 -4.4606 16.4294C-3.90502 16.6664 -3.191 16.8542 -2.37404 16.9807C-0.740343 17.2337 1.29473 17.24 3.27477 16.9129ZM8.16682 14.4774C6.84558 15.4921 5.04353 16.1279 3.18349 16.4563C1.32423 16.7846 -0.585963 16.8046 -2.11809 16.5932C-2.88427 16.4874 -3.55333 16.3242 -4.07317 16.1143C-4.59582 15.9032 -4.95555 15.6498 -5.11998 15.3715C-5.20104 15.2344 -5.2348 15.0911 -5.2181 14.9408C-5.20129 14.7896 -5.13268 14.6254 -4.99908 14.4489C-4.79403 14.1781 -4.44123 13.8855 -3.91172 13.5767C-4.25439 13.7993 -4.50334 14.0153 -4.66682 14.2237C-4.80471 14.3994 -4.88441 14.5731 -4.90501 14.7432C-4.92576 14.9145 -4.88577 15.0758 -4.79514 15.2239C-4.61661 15.5155 -4.24257 15.7546 -3.74585 15.9417C-3.24599 16.13 -2.60859 16.2705 -1.88543 16.3562C-0.438858 16.5276 1.36125 16.4808 3.11283 16.1496C4.86363 15.8185 6.57283 15.202 7.83231 14.2288C10.9821 11.7945 12.6642 7.8031 12.7861 5.19594C12.8167 4.54334 12.7498 3.97169 12.5795 3.53062C12.4088 3.08863 12.1312 2.77126 11.7388 2.64511C11.3485 2.51961 10.8633 2.58948 10.2892 2.88002C9.71463 3.17082 9.04244 3.68683 8.27117 4.46967L8.27116 4.46969C8.00742 4.73755 7.75167 4.99932 7.50106 5.25582C4.98408 7.83205 2.98539 9.87777 -1.38919 12.2431C3.17948 9.70229 5.28551 7.49058 7.84083 4.80704L7.84144 4.8064L7.84158 4.80626C8.10394 4.53072 8.37104 4.25022 8.64604 3.96388L8.58957 3.90965L8.64604 3.96388C9.40347 3.17504 10.0635 2.67516 10.6244 2.40991C11.185 2.14484 11.6395 2.11707 11.9947 2.25898C12.3501 2.40098 12.6235 2.71986 12.8068 3.18511C12.9901 3.65049 13.0802 4.25548 13.0721 4.954C13.0394 7.75181 11.433 11.9707 8.16685 14.4773L8.16682 14.4774ZM3.08374 15.9957C4.82102 15.6672 6.50377 15.0575 7.73657 14.1049C10.8484 11.6999 12.5098 7.7519 12.6297 5.18863C12.6597 4.54862 12.5932 4.00072 12.4334 3.58702C12.274 3.17421 12.0249 2.90157 11.6909 2.79417C11.3549 2.68612 10.9142 2.73916 10.3599 3.01972C9.80613 3.3 9.14753 3.80325 8.38271 4.57956C8.11925 4.84713 7.86367 5.10873 7.61312 5.36518C5.07114 7.967 3.04728 10.0385 -1.42633 12.4409C2.86189 10.2131 4.76855 8.31653 7.29253 5.80596L7.29291 5.80558L7.29521 5.80329L7.29599 5.80251C7.53162 5.56814 7.77263 5.32841 8.02147 5.08256C8.79974 4.31365 9.46908 3.79646 10.0336 3.49174C10.5969 3.18775 11.0654 3.09017 11.4366 3.17764C11.8128 3.2663 12.0706 3.54033 12.2188 3.93483C12.3662 4.32708 12.4082 4.84384 12.3552 5.43771C12.1434 7.81068 10.4036 11.5262 7.41309 13.8548L7.41301 13.8549C6.23987 14.7659 4.64869 15.3568 3.01979 15.6884C1.39011 16.0201 -0.284061 16.0936 -1.62834 15.9649C-2.30033 15.9005 -2.89247 15.7854 -3.35649 15.6253C-3.81692 15.4664 -4.16553 15.2585 -4.3313 14.9984C-4.4158 14.8658 -4.45252 14.7199 -4.43142 14.5643C-4.41052 14.4102 -4.33388 14.2533 -4.20375 14.0947C-4.04729 13.904 -3.80895 13.7054 -3.48083 13.4998C-4.00115 13.7924 -4.34551 14.0678 -4.54363 14.3203C-4.66915 14.4803 -4.73331 14.6277 -4.74957 14.762C-4.76569 14.8951 -4.73555 15.0213 -4.6616 15.1421C-4.511 15.3882 -4.17815 15.6116 -3.69067 15.7952C-3.20633 15.9776 -2.58222 16.1159 -1.86701 16.2007C-0.436844 16.3701 1.34724 16.3241 3.08374 15.9957ZM7.31692 13.7312C6.16978 14.6221 4.60435 15.2061 2.98856 15.535C1.37351 15.8637 -0.285105 15.9362 -1.61341 15.809C-2.2777 15.7454 -2.85679 15.632 -3.30542 15.4773C-3.75765 15.3212 -4.06309 15.1279 -4.19927 14.9143C-4.26572 14.81 -4.29194 14.701 -4.27626 14.5854C-4.26037 14.4682 -4.2005 14.3376 -4.08271 14.194C-3.91468 13.9892 -3.63531 13.766 -3.22396 13.528C-3.45043 13.678 -3.62194 13.823 -3.74248 13.9627C-3.86477 14.1044 -3.93839 14.245 -3.95958 14.3835C-3.98107 14.524 -3.94744 14.6551 -3.86876 14.7727C-3.71539 15.0019 -3.39177 15.1795 -2.96742 15.311C-2.53893 15.4438 -1.99166 15.5343 -1.37042 15.5781C-0.127607 15.6656 1.42158 15.5665 2.93021 15.2344C4.43808 14.9024 5.912 14.3362 6.99928 13.4849L6.99938 13.4848C8.41639 12.3714 9.57305 10.955 10.413 9.55166C11.2525 8.14915 11.7787 6.75479 11.93 5.68351C12.0056 5.14874 11.9889 4.68673 11.8643 4.34304C11.7381 3.99473 11.499 3.76483 11.1393 3.71464C10.7882 3.66563 10.3368 3.79037 9.78405 4.10778C9.22936 4.42631 8.56274 4.94462 7.77726 5.69943C7.54855 5.91821 7.32704 6.13126 7.11081 6.33923C4.70343 8.65467 2.95107 10.3401 -0.797434 12.2853C3.12623 10.171 4.98681 8.3203 7.40302 5.9169L7.40402 5.9159L7.40582 5.91411C7.64161 5.67957 7.88269 5.43977 8.13152 5.19395C8.90401 4.43073 9.56138 3.92457 10.108 3.62953C10.656 3.33377 11.0831 3.25521 11.4007 3.33004C11.7132 3.40368 11.9371 3.63039 12.0722 3.98991C12.2082 4.35169 12.2512 4.84224 12.1992 5.42379C11.9914 7.75253 10.2739 11.4287 7.31692 13.7312ZM2.89654 15.0815C4.39175 14.7523 5.84069 14.1932 6.90269 13.3617C8.30222 12.2619 9.44682 10.861 10.2787 9.47124C11.1111 8.08067 11.6274 6.70626 11.775 5.66161C11.8489 5.13841 11.8292 4.70565 11.7171 4.39637C11.6067 4.09169 11.4092 3.91039 11.1177 3.86971C10.8177 3.82784 10.4035 3.93258 9.86202 4.24356C9.32246 4.5534 8.66616 5.06239 7.88576 5.81233L7.88563 5.81246C7.65713 6.03102 7.43575 6.24395 7.21956 6.45189L7.21941 6.45202C5.70184 7.91165 4.44039 9.12493 2.77408 10.3114L2.77397 10.3115C2.28024 10.6631 1.75096 11.0123 1.16895 11.3649L1.16887 11.3649C0.640171 11.6852 0.067948 12.0082 -0.560681 12.3383C-0.102666 12.1079 0.323405 11.8816 0.723397 11.6573L0.723431 11.6573C1.85452 11.0229 2.77704 10.4046 3.62347 9.75401L3.62354 9.75396C4.78012 8.86497 5.79462 7.91575 7.00501 6.78324L7.00505 6.78321L7.00507 6.78318L7.00509 6.78317L7.00688 6.7815L7.00793 6.78052C7.17331 6.62577 7.34236 6.46761 7.51592 6.30571C8.30929 5.56588 8.97375 5.04714 9.51903 4.71538C10.062 4.38503 10.4962 4.23425 10.8264 4.24494C10.9934 4.25035 11.1357 4.29723 11.2499 4.38467C11.3638 4.4719 11.4444 4.59525 11.4957 4.74453C11.5975 5.04025 11.5883 5.44781 11.4902 5.92284C11.2933 6.87589 10.7298 8.14161 9.88458 9.43165C9.03869 10.7227 7.90731 12.0431 6.57004 13.1041L6.57003 13.1041C5.57149 13.8961 4.21746 14.4386 2.83291 14.7722C1.44759 15.106 0.0253669 15.2323 -1.11444 15.1874C-1.68417 15.165 -2.18587 15.0998 -2.57827 14.9952C-2.96577 14.8918 -3.26426 14.7456 -3.4053 14.5478C-3.4784 14.4453 -3.50902 14.329 -3.48684 14.2035C-3.46515 14.0807 -3.39433 13.9568 -3.28002 13.8324C-3.17832 13.7217 -3.03849 13.6066 -2.85788 13.4873C-3.22218 13.695 -3.47168 13.8885 -3.62394 14.065C-3.73402 14.1925 -3.78945 14.3068 -3.80481 14.4072C-3.81986 14.5056 -3.79754 14.5976 -3.73862 14.6856C-3.61678 14.8677 -3.33855 15.0321 -2.92108 15.1614C-2.50776 15.2895 -1.97324 15.3787 -1.35941 15.4219C-0.132068 15.5084 1.40207 15.4105 2.89654 15.0815ZM6.47273 12.9814C5.49862 13.754 4.16868 14.2893 2.79623 14.62C1.42453 14.9505 0.0167125 15.0752 -1.10829 15.031C-1.67096 15.0089 -2.16034 14.9446 -2.53793 14.8439C-2.92042 14.7419 -3.17084 14.6069 -3.27782 14.4569C-3.32872 14.3855 -3.34689 14.3113 -3.33266 14.2307C-3.31795 14.1475 -3.26717 14.0498 -3.16472 13.9383C-3.03597 13.7982 -2.83308 13.6442 -2.54379 13.4781C-2.65504 13.5546 -2.74569 13.6287 -2.81675 13.7002C-2.923 13.8072 -2.99134 13.9144 -3.01382 14.0216C-3.03712 14.1327 -3.00929 14.2349 -2.94124 14.3226C-2.87529 14.4076 -2.77315 14.4774 -2.64772 14.5349C-2.52148 14.5928 -2.3663 14.6407 -2.18813 14.6791C-1.83176 14.7558 -1.37545 14.796 -0.856946 14.7974C0.180428 14.8002 1.47661 14.6477 2.73979 14.3132C4.00221 13.979 5.23779 13.4614 6.14926 12.7302C7.40662 11.7214 8.51307 10.4969 9.36539 9.31845C10.2169 8.14105 10.8184 7.0045 11.0614 6.17043C11.1821 5.75605 11.2185 5.40251 11.1398 5.15401C11.0995 5.02709 11.0282 4.92453 10.9207 4.8588C10.814 4.7936 10.6804 4.76993 10.5248 4.78371C10.2167 4.811 9.79997 4.98704 9.26597 5.33032C8.72966 5.6751 8.06678 6.1941 7.26473 6.91863L7.26472 6.91864L6.93941 7.21286L6.93935 7.21291C6.39263 7.70757 5.89231 8.16025 5.40795 8.58287L5.4079 8.58292C3.74591 10.0331 2.27197 11.1293 -0.24264 12.3524C1.99633 11.2042 3.46482 10.1486 4.88814 8.92403L4.88819 8.92399C5.60964 8.30325 6.31949 7.63908 7.1122 6.89738C7.27844 6.74183 7.44832 6.58288 7.62272 6.42021C8.41175 5.68443 9.06754 5.17335 9.60042 4.84915C10.1356 4.52354 10.5375 4.39224 10.8213 4.40143C10.9612 4.40596 11.0705 4.44451 11.1547 4.509C11.2392 4.5737 11.3041 4.66879 11.3477 4.79547C11.4358 5.05166 11.4329 5.42607 11.3368 5.89117C11.1453 6.81838 10.5925 8.06557 9.75362 9.34584C8.91539 10.6252 7.79488 11.9324 6.47273 12.9814ZM2.69972 14.1619C3.95072 13.8307 5.16325 13.3205 6.05128 12.608C7.29611 11.6093 8.39315 10.3956 9.23851 9.22669C10.0847 8.05671 10.6751 6.93672 10.911 6.12664C11.0298 5.71895 11.0546 5.40352 10.9905 5.20133C10.9593 5.10291 10.9082 5.03471 10.839 4.99239C10.7689 4.94955 10.6715 4.9279 10.5386 4.93967C10.2697 4.96349 9.87952 5.12204 9.35064 5.46203C8.82408 5.80054 8.16819 6.31349 7.3697 7.03481L7.04477 7.32868L7.04476 7.32869C6.79252 7.55691 6.55003 7.77631 6.31433 7.98804L6.31428 7.98808C4.35485 9.74817 2.86426 10.978 0.135497 12.3406C3.10744 10.9443 4.49875 9.72779 7.00793 7.53375L7.00794 7.53375L7.00795 7.53374L7.01208 7.53013L7.01214 7.53007C7.82165 6.8208 8.48199 6.30147 9.00867 5.94367C9.53337 5.58723 9.93195 5.3865 10.2167 5.32199C10.3591 5.28971 10.4827 5.28926 10.5813 5.33007C10.6844 5.37271 10.7486 5.45556 10.778 5.56259C10.8064 5.66618 10.8027 5.79271 10.7761 5.93364C10.7493 6.07562 10.6981 6.23825 10.6259 6.41723C10.3374 7.13151 9.69911 8.13853 8.8423 9.20335C7.98456 10.2693 6.90402 11.3979 5.72713 12.3547L5.72712 12.3547C4.90276 13.0248 3.78584 13.5173 2.64576 13.8522C1.50491 14.1874 0.335072 14.3664 -0.599585 14.4061C-1.06673 14.4259 -1.47743 14.411 -1.79755 14.3625C-1.95755 14.3382 -2.09699 14.3053 -2.21038 14.2631C-2.32251 14.2213 -2.41596 14.1679 -2.47665 14.0987C-2.54064 14.0256 -2.5662 13.9365 -2.54105 13.8392C-2.51742 13.7477 -2.45127 13.6576 -2.35344 13.5685C-2.31342 13.5321 -2.26685 13.4947 -2.2135 13.4563C-2.43749 13.5846 -2.59884 13.703 -2.70566 13.8106C-2.80075 13.9063 -2.84671 13.9876 -2.86058 14.0537C-2.87365 14.116 -2.85989 14.172 -2.81753 14.2266C-2.77307 14.2839 -2.69598 14.3405 -2.58245 14.3926C-2.46975 14.4443 -2.32626 14.4892 -2.15518 14.526C-1.81303 14.5997 -1.36843 14.6395 -0.856528 14.6408C0.166903 14.6436 1.44948 14.4929 2.69972 14.1619ZM5.62836 12.2332C4.82627 12.8852 3.73112 13.3702 2.60163 13.702C1.4729 14.0336 0.315643 14.2105 -0.606221 14.2496C-1.06734 14.2692 -1.46726 14.2542 -1.77409 14.2077C-1.92757 14.1844 -2.0557 14.1536 -2.15571 14.1163C-2.25698 14.0786 -2.32276 14.0367 -2.35889 13.9955C-2.39172 13.958 -2.40057 13.9214 -2.38945 13.8783C-2.37682 13.8294 -2.33603 13.7644 -2.24801 13.6843C-2.16536 13.609 -2.04772 13.5263 -1.89073 13.4365C-1.97901 13.5071 -2.04281 13.5794 -2.06812 13.6544C-2.08143 13.6939 -2.08432 13.7349 -2.07339 13.7752C-2.06256 13.8151 -2.03971 13.8486 -2.01077 13.876C-1.9549 13.9288 -1.87006 13.9651 -1.77189 13.9909C-1.6717 14.0172 -1.54832 14.0351 -1.40668 14.0451C-1.12321 14.0653 -0.758423 14.0547 -0.342789 14.0136C0.488827 13.9314 1.53222 13.7257 2.55102 13.3902C3.56905 13.0549 4.56791 12.5882 5.30636 11.9809L5.3066 11.9807C7.49255 10.1686 9.52429 7.85074 10.1914 6.67136C10.2752 6.52322 10.3388 6.39066 10.3785 6.27763C10.4173 6.16722 10.4372 6.06479 10.421 5.98195C10.4125 5.93855 10.3936 5.8979 10.3601 5.8662C10.3267 5.83457 10.2846 5.8173 10.2392 5.81052C10.1521 5.79753 10.0416 5.82132 9.91281 5.87086C9.65207 5.97119 9.27151 6.19555 8.75505 6.56416C8.23716 6.93379 7.57817 7.45173 6.7595 8.14323C4.34374 10.1835 3.05671 11.2061 0.449897 12.3645C3.27376 11.0069 4.66786 9.78791 7.11208 7.65068L7.11521 7.64794L7.11527 7.64789C7.92206 6.94099 8.57715 6.42611 9.09666 6.07319C9.61817 5.7189 9.99656 5.5324 10.2513 5.47469C10.3785 5.44586 10.4652 5.45146 10.5214 5.47475C10.5733 5.4962 10.6084 5.53639 10.627 5.60403C10.6465 5.67512 10.6467 5.7749 10.6222 5.90461C10.598 6.03326 10.5506 6.18559 10.4807 6.35859C10.2005 7.05223 9.57309 8.04539 8.72031 9.10519C7.86846 10.1638 6.79555 11.2843 5.62836 12.2332ZM2.50204 13.2415C3.51052 12.9093 4.48919 12.4502 5.20685 11.86C7.38529 10.0541 9.40112 7.75048 10.0551 6.59427C10.1364 6.45046 10.1953 6.32678 10.2308 6.22573C10.2672 6.12205 10.2753 6.05252 10.2673 6.01198C10.2638 5.99369 10.2576 5.98478 10.2525 5.97988C10.2472 5.97491 10.2371 5.96852 10.2161 5.96539C10.1703 5.95856 10.0913 5.96994 9.96904 6.01699C9.7278 6.10982 9.36064 6.3243 8.84601 6.6916C8.33281 7.05789 7.67734 7.57292 6.86053 8.26286C4.50346 10.2535 3.21022 11.2841 0.72352 12.4132C1.66602 12.0268 2.42069 11.6573 3.14717 11.2224C4.17187 10.6091 5.14286 9.86439 6.50745 8.75458C8.1615 7.40908 9.13979 6.68905 9.61201 6.42242C9.72896 6.35638 9.82252 6.31362 9.89073 6.29904C9.92313 6.29212 9.96504 6.288 10.0026 6.30583C10.0235 6.31574 10.0413 6.33166 10.053 6.35308C10.0643 6.37354 10.0677 6.39479 10.0679 6.41305C10.0682 6.44766 10.0566 6.48358 10.0426 6.5161C10.0278 6.55023 10.0067 6.58844 9.98076 6.62984C9.92882 6.71273 9.85351 6.81452 9.7587 6.93178C9.00234 7.86723 6.91213 9.89987 4.88486 11.6052C3.58687 12.6966 1.37027 13.3754 -0.0823207 13.6233C-0.446488 13.6855 -0.765236 13.721 -1.01184 13.729C-1.13502 13.7329 -1.24198 13.7301 -1.32846 13.7197C-1.41182 13.7097 -1.48735 13.6916 -1.53847 13.6571C-1.56548 13.6388 -1.59141 13.6121 -1.60281 13.5744C-1.61448 13.5358 -1.60712 13.4983 -1.59191 13.4669C-1.57985 13.4419 -1.56141 13.4176 -1.53799 13.3939C-1.64551 13.4534 -1.72945 13.5082 -1.79195 13.558C-1.8735 13.6231 -1.90892 13.6723 -1.91976 13.7045C-1.92459 13.7188 -1.92398 13.7279 -1.92228 13.7342C-1.92048 13.7408 -1.91576 13.7503 -1.90315 13.7622C-1.87591 13.788 -1.82163 13.8159 -1.73206 13.8395C-1.64452 13.8625 -1.53155 13.8793 -1.3956 13.889C-1.1239 13.9082 -0.768565 13.8984 -0.358203 13.8578C0.462174 13.7767 1.4943 13.5734 2.50204 13.2415ZM4.78408 11.4854C3.51808 12.5499 1.33468 13.2226 -0.108666 13.4689C-0.468483 13.5304 -0.779717 13.5648 -1.0169 13.5725C-1.13562 13.5763 -1.234 13.5734 -1.3098 13.5643C-1.38454 13.5553 -1.42767 13.5413 -1.44773 13.5293C-1.4361 13.5108 -1.40475 13.4784 -1.33659 13.4332C-1.18975 13.336 -0.916835 13.2079 -0.486196 13.0492L-0.513268 12.9757L-0.486189 13.0492C1.10181 12.4637 2.19188 11.9767 3.22758 11.3568C4.26266 10.7372 5.24107 9.98633 6.60625 8.87605L6.60626 8.87604C8.26235 7.52888 9.23035 6.81773 9.68899 6.55876C9.78344 6.50543 9.85121 6.47428 9.89633 6.45963C9.88574 6.48297 9.86986 6.51195 9.84808 6.5467C9.80094 6.62194 9.73004 6.7182 9.63694 6.83333C8.89008 7.75704 6.80895 9.78205 4.78408 11.4854Z" fill="url(#paint44_linear)"/>
</g>
<g style="mix-blend-mode:soft-light" filter="url(#filter0_i)">
<path d="M38 20C38 29.9411 29.9411 38 20 38C10.0589 38 2 29.9411 2 20C2 10.0589 10.0589 2 20 2C26.2408 2 31 5.5 31.5 11.5C32 17.5 38 16.2997 38 20Z" fill="url(#paint45_radial)"/>
</g>
</g>
<defs>
<filter id="filter0_i" x="2" y="2" width="36" height="36" filterUnits="userSpaceOnUse" color-interpolation-filters="sRGB">
<feFlood flood-opacity="0" result="BackgroundImageFix"/>
<feBlend mode="normal" in="SourceGraphic" in2="BackgroundImageFix" result="shape"/>
<feColorMatrix in="SourceAlpha" type="matrix" values="0 0 0 0 0 0 0 0 0 0 0 0 0 0 0 0 0 0 127 0" result="hardAlpha"/>
<feOffset/>
<feGaussianBlur stdDeviation="4"/>
<feComposite in2="hardAlpha" operator="arithmetic" k2="-1" k3="1"/>
<feColorMatrix type="matrix" values="0 0 0 0 1 0 0 0 0 1 0 0 0 0 1 0 0 0 0.75 0"/>
<feBlend mode="normal" in2="shape" result="effect1_innerShadow"/>
</filter>
<radialGradient id="paint0_radial" cx="0" cy="0" r="1" gradientUnits="userSpaceOnUse" gradientTransform="translate(16 10.5) rotate(81.7241) scale(27.7894)">
<stop stop-color="#FB3AFF"/>
<stop offset="1" stop-color="#00FFD1"/>
</radialGradient>
<linearGradient id="paint1_linear" x1="20" y1="2" x2="20" y2="38" gradientUnits="userSpaceOnUse">
<stop stop-color="#FB3AFF"/>
<stop offset="1" stop-color="#00FFD1"/>
</linearGradient>
<linearGradient id="paint2_linear" x1="32.7028" y1="13.7531" x2="18.3631" y2="47.7162" gradientUnits="userSpaceOnUse">
<stop stop-color="#00D1FF"/>
<stop offset="1" stop-color="#FA00FF" stop-opacity="0"/>
</linearGradient>
<linearGradient id="paint3_linear" x1="32.3121" y1="14.2798" x2="18.3006" y2="47.4656" gradientUnits="userSpaceOnUse">
<stop stop-color="#00D1FF"/>
<stop offset="1" stop-color="#FA00FF" stop-opacity="0"/>
</linearGradient>
<linearGradient id="paint4_linear" x1="31.9152" y1="14.8047" x2="18.2333" y2="47.2099" gradientUnits="userSpaceOnUse">
<stop stop-color="#00D1FF"/>
<stop offset="1" stop-color="#FA00FF" stop-opacity="0"/>
</linearGradient>
<linearGradient id="paint5_linear" x1="31.5195" y1="15.3297" x2="18.1662" y2="46.9566" gradientUnits="userSpaceOnUse">
<stop stop-color="#00D1FF"/>
<stop offset="1" stop-color="#FA00FF" stop-opacity="0"/>
</linearGradient>
<linearGradient id="paint6_linear" x1="31.1272" y1="15.8571" x2="18.1029" y2="46.7047" gradientUnits="userSpaceOnUse">
<stop stop-color="#00D1FF"/>
<stop offset="1" stop-color="#FA00FF" stop-opacity="0"/>
</linearGradient>
<linearGradient id="paint7_linear" x1="30.7299" y1="16.3809" x2="18.0333" y2="46.4523" gradientUnits="userSpaceOnUse">
<stop stop-color="#00D1FF"/>
<stop offset="1" stop-color="#FA00FF" stop-opacity="0"/>
</linearGradient>
<linearGradient id="paint8_linear" x1="30.3371" y1="16.9066" x2="17.9705" y2="46.1964" gradientUnits="userSpaceOnUse">
<stop stop-color="#00D1FF"/>
<stop offset="1" stop-color="#FA00FF" stop-opacity="0"/>
</linearGradient>
<linearGradient id="paint9_linear" x1="29.9437" y1="17.4357" x2="17.9058" y2="45.9471" gradientUnits="userSpaceOnUse">
<stop stop-color="#00D1FF"/>
<stop offset="1" stop-color="#FA00FF" stop-opacity="0"/>
</linearGradient>
<linearGradient id="paint10_linear" x1="29.553" y1="17.9576" x2="17.8423" y2="45.6938" gradientUnits="userSpaceOnUse">
<stop stop-color="#00D1FF"/>
<stop offset="1" stop-color="#FA00FF" stop-opacity="0"/>
</linearGradient>
<linearGradient id="paint11_linear" x1="29.1554" y1="18.4805" x2="17.7736" y2="45.438" gradientUnits="userSpaceOnUse">
<stop stop-color="#00D1FF"/>
<stop offset="1" stop-color="#FA00FF" stop-opacity="0"/>
</linearGradient>
<linearGradient id="paint12_linear" x1="28.7662" y1="19.0066" x2="17.7121" y2="45.188" gradientUnits="userSpaceOnUse">
<stop stop-color="#00D1FF"/>
<stop offset="1" stop-color="#FA00FF" stop-opacity="0"/>
</linearGradient>
<linearGradient id="paint13_linear" x1="28.3682" y1="19.5287" x2="17.64" y2="44.938" gradientUnits="userSpaceOnUse">
<stop stop-color="#00D1FF"/>
<stop offset="1" stop-color="#FA00FF" stop-opacity="0"/>
</linearGradient>
<linearGradient id="paint14_linear" x1="27.9834" y1="20.0573" x2="17.5834" y2="44.6894" gradientUnits="userSpaceOnUse">
<stop stop-color="#00D1FF"/>
<stop offset="1" stop-color="#FA00FF" stop-opacity="0"/>
</linearGradient>
<linearGradient id="paint15_linear" x1="27.5825" y1="20.5778" x2="17.5101" y2="44.4338" gradientUnits="userSpaceOnUse">
<stop stop-color="#00D1FF"/>
<stop offset="1" stop-color="#FA00FF" stop-opacity="0"/>
</linearGradient>
<linearGradient id="paint16_linear" x1="27.1913" y1="21.1017" x2="17.4464" y2="44.1822" gradientUnits="userSpaceOnUse">
<stop stop-color="#00D1FF"/>
<stop offset="1" stop-color="#FA00FF" stop-opacity="0"/>
</linearGradient>
<linearGradient id="paint17_linear" x1="26.7968" y1="21.624" x2="17.3796" y2="43.9282" gradientUnits="userSpaceOnUse">
<stop stop-color="#00D1FF"/>
<stop offset="1" stop-color="#FA00FF" stop-opacity="0"/>
</linearGradient>
<linearGradient id="paint18_linear" x1="26.4025" y1="22.1456" x2="17.3108" y2="43.6789" gradientUnits="userSpaceOnUse">
<stop stop-color="#00D1FF"/>
<stop offset="1" stop-color="#FA00FF" stop-opacity="0"/>
</linearGradient>
<linearGradient id="paint19_linear" x1="26.0153" y1="22.6701" x2="17.2513" y2="43.4273" gradientUnits="userSpaceOnUse">
<stop stop-color="#00D1FF"/>
<stop offset="1" stop-color="#FA00FF" stop-opacity="0"/>
</linearGradient>
<linearGradient id="paint20_linear" x1="25.6209" y1="23.1909" x2="17.184" y2="43.1733" gradientUnits="userSpaceOnUse">
<stop stop-color="#00D1FF"/>
<stop offset="1" stop-color="#FA00FF" stop-opacity="0"/>
</linearGradient>
<linearGradient id="paint21_linear" x1="25.2271" y1="23.7123" x2="17.1165" y2="42.922" gradientUnits="userSpaceOnUse">
<stop stop-color="#00D1FF"/>
<stop offset="1" stop-color="#FA00FF" stop-opacity="0"/>
</linearGradient>
<linearGradient id="paint22_linear" x1="24.8434" y1="24.2357" x2="17.0571" y2="42.6774" gradientUnits="userSpaceOnUse">
<stop stop-color="#00D1FF"/>
<stop offset="1" stop-color="#FA00FF" stop-opacity="0"/>
</linearGradient>
<linearGradient id="paint23_linear" x1="24.448" y1="24.7539" x2="16.9903" y2="42.4171" gradientUnits="userSpaceOnUse">
<stop stop-color="#00D1FF"/>
<stop offset="1" stop-color="#FA00FF" stop-opacity="0"/>
</linearGradient>
<linearGradient id="paint24_linear" x1="24.0577" y1="25.2731" x2="16.9238" y2="42.1696" gradientUnits="userSpaceOnUse">
<stop stop-color="#00D1FF"/>
<stop offset="1" stop-color="#FA00FF" stop-opacity="0"/>
</linearGradient>
<linearGradient id="paint25_linear" x1="23.6678" y1="25.7911" x2="16.8585" y2="41.9187" gradientUnits="userSpaceOnUse">
<stop stop-color="#00D1FF"/>
<stop offset="1" stop-color="#FA00FF" stop-opacity="0"/>
</linearGradient>
<linearGradient id="paint26_linear" x1="23.2357" y1="26.2902" x2="16.7454" y2="41.6621" gradientUnits="userSpaceOnUse">
<stop stop-color="#00D1FF"/>
<stop offset="1" stop-color="#FA00FF" stop-opacity="0"/>
</linearGradient>
<linearGradient id="paint27_linear" x1="22.8399" y1="26.8004" x2="16.673" y2="41.4066" gradientUnits="userSpaceOnUse">
<stop stop-color="#00D1FF"/>
<stop offset="1" stop-color="#FA00FF" stop-opacity="0"/>
</linearGradient>
<linearGradient id="paint28_linear" x1="22.452" y1="27.3165" x2="16.6088" y2="41.1559" gradientUnits="userSpaceOnUse">
<stop stop-color="#00D1FF"/>
<stop offset="1" stop-color="#FA00FF" stop-opacity="0"/>
</linearGradient>
<linearGradient id="paint29_linear" x1="22.064" y1="27.8311" x2="16.5439" y2="40.905" gradientUnits="userSpaceOnUse">
<stop stop-color="#00D1FF"/>
<stop offset="1" stop-color="#FA00FF" stop-opacity="0"/>
</linearGradient>
<linearGradient id="paint30_linear" x1="21.6721" y1="28.3393" x2="16.4734" y2="40.6522" gradientUnits="userSpaceOnUse">
<stop stop-color="#00D1FF"/>
<stop offset="1" stop-color="#FA00FF" stop-opacity="0"/>
</linearGradient>
<linearGradient id="paint31_linear" x1="21.2791" y1="28.8441" x2="16.401" y2="40.3977" gradientUnits="userSpaceOnUse">
<stop stop-color="#00D1FF"/>
<stop offset="1" stop-color="#FA00FF" stop-opacity="0"/>
</linearGradient>
<linearGradient id="paint32_linear" x1="20.8975" y1="29.3503" x2="16.3364" y2="40.1532" gradientUnits="userSpaceOnUse">
<stop stop-color="#00D1FF"/>
<stop offset="1" stop-color="#FA00FF" stop-opacity="0"/>
</linearGradient>
<linearGradient id="paint33_linear" x1="20.508" y1="29.8483" x2="16.2664" y2="39.8944" gradientUnits="userSpaceOnUse">
<stop stop-color="#00D1FF"/>
<stop offset="1" stop-color="#FA00FF" stop-opacity="0"/>
</linearGradient>
<linearGradient id="paint34_linear" x1="20.2931" y1="30.3303" x2="16.3649" y2="39.6341" gradientUnits="userSpaceOnUse">
<stop stop-color="#00D1FF"/>
<stop offset="1" stop-color="#FA00FF" stop-opacity="0"/>
</linearGradient>
<linearGradient id="paint35_linear" x1="19.7424" y1="30.834" x2="16.1279" y2="39.3947" gradientUnits="userSpaceOnUse">
<stop stop-color="#00D1FF"/>
<stop offset="1" stop-color="#FA00FF" stop-opacity="0"/>
</linearGradient>
<linearGradient id="paint36_linear" x1="19.3685" y1="31.3198" x2="16.066" y2="39.1416" gradientUnits="userSpaceOnUse">
<stop stop-color="#00D1FF"/>
<stop offset="1" stop-color="#FA00FF" stop-opacity="0"/>
</linearGradient>
<linearGradient id="paint37_linear" x1="18.9627" y1="31.7819" x2="15.965" y2="38.8818" gradientUnits="userSpaceOnUse">
<stop stop-color="#00D1FF"/>
<stop offset="1" stop-color="#FA00FF" stop-opacity="0"/>
</linearGradient>
<linearGradient id="paint38_linear" x1="18.6111" y1="32.0998" x2="15.8597" y2="38.6165" gradientUnits="userSpaceOnUse">
<stop stop-color="#00D1FF"/>
<stop offset="1" stop-color="#FA00FF" stop-opacity="0"/>
</linearGradient>
<linearGradient id="paint39_linear" x1="18.1911" y1="32.5401" x2="15.7429" y2="38.3385" gradientUnits="userSpaceOnUse">
<stop stop-color="#00D1FF"/>
<stop offset="1" stop-color="#FA00FF" stop-opacity="0"/>
</linearGradient>
<linearGradient id="paint40_linear" x1="17.7697" y1="32.9696" x2="15.6188" y2="38.0638" gradientUnits="userSpaceOnUse">
<stop stop-color="#00D1FF"/>
<stop offset="1" stop-color="#FA00FF" stop-opacity="0"/>
</linearGradient>
<linearGradient id="paint41_linear" x1="17.3092" y1="33.4628" x2="15.4843" y2="37.7851" gradientUnits="userSpaceOnUse">
<stop stop-color="#00D1FF"/>
<stop offset="1" stop-color="#FA00FF" stop-opacity="0"/>
</linearGradient>
<linearGradient id="paint42_linear" x1="16.899" y1="33.8291" x2="15.3404" y2="37.5204" gradientUnits="userSpaceOnUse">
<stop stop-color="#00D1FF"/>
<stop offset="1" stop-color="#FA00FF" stop-opacity="0"/>
</linearGradient>
<linearGradient id="paint43_linear" x1="16.4867" y1="34.1717" x2="15.1945" y2="37.2322" gradientUnits="userSpaceOnUse">
<stop stop-color="#00D1FF"/>
<stop offset="1" stop-color="#FA00FF" stop-opacity="0"/>
</linearGradient>
<linearGradient id="paint44_linear" x1="4.59216" y1="12.9955" x2="3.88416" y2="7.09767" gradientUnits="userSpaceOnUse">
<stop stop-color="#FB3AFF"/>
<stop offset="1" stop-color="#18E3FF" stop-opacity="0.53"/>
</linearGradient>
<radialGradient id="paint45_radial" cx="0" cy="0" r="1" gradientUnits="userSpaceOnUse" gradientTransform="translate(17.5 10.5) rotate(55.9806) scale(24.1299 33.1127)">
<stop stop-color="white" stop-opacity="0"/>
<stop offset="0.895833" stop-color="#EEBCFF"/>
</radialGradient>
</defs>
</svg>
